<?xml version="1.0" encoding="UTF-8" standalone="no"?>
<svg
   xmlns:dc="http://purl.org/dc/elements/1.1/"
   xmlns:cc="http://creativecommons.org/ns#"
   xmlns:rdf="http://www.w3.org/1999/02/22-rdf-syntax-ns#"
   xmlns:svg="http://www.w3.org/2000/svg"
   xmlns="http://www.w3.org/2000/svg"
   xmlns:sodipodi="http://sodipodi.sourceforge.net/DTD/sodipodi-0.dtd"
   xmlns:inkscape="http://www.inkscape.org/namespaces/inkscape"
   version="1.1"
   id="svg62"
   width="714.66669"
   height="461.33334"
   viewBox="0 0 714.66669 461.33334"
   sodipodi:docname="output-onlinepngtools.svg"
   inkscape:export-filename="/home/prashant/Downloads/map.svg.png"
   inkscape:export-xdpi="96"
   inkscape:export-ydpi="96"
   inkscape:version="1.0.2 (e86c870879, 2021-01-15)">
  <metadata
     id="metadata68">
    <rdf:RDF>
      <cc:Work
         rdf:about="">
        <dc:format>image/svg+xml</dc:format>
        <dc:type
           rdf:resource="http://purl.org/dc/dcmitype/StillImage" />
        <dc:title></dc:title>
      </cc:Work>
    </rdf:RDF>
  </metadata>
  <defs
     id="defs66" />
  <sodipodi:namedview
     pagecolor="#ffffff"
     bordercolor="#666666"
     borderopacity="1"
     objecttolerance="10"
     gridtolerance="10"
     guidetolerance="10"
     inkscape:pageopacity="0"
     inkscape:pageshadow="2"
     inkscape:window-width="1600"
     inkscape:window-height="821"
     id="namedview64"
     showgrid="false"
     inkscape:zoom="0.68280345"
     inkscape:cx="848.29895"
     inkscape:cy="230.55456"
     inkscape:window-x="0"
     inkscape:window-y="27"
     inkscape:window-maximized="1"
     inkscape:current-layer="g70" />
  <g
     inkscape:groupmode="layer"
     inkscape:label="Image"
     id="g70">
    <g
       id="g1075"
       transform="translate(-12.32541,1.7743972)"
       style="opacity:0.75323922">
      <path
         style="fill:#fbfcfc;stroke-width:1.33333"
         d="M 15.010736,230.74496 V 0.07829189 H 372.34408 729.67743 V 230.74496 461.41163 H 372.34408 15.010736 Z"
         id="path1101" />
      <path
         style="fill:#f6f8f8;stroke-width:1.33333"
         d="m 43.825809,459.31758 c -0.448289,-1.16823 -0.815072,-9.805 -0.815072,-19.19283 0,-15.77455 -0.196235,-17.12008 -2.588026,-17.74556 -1.423413,-0.37223 -3.673413,-2.9922 -5,-5.82217 l -2.411974,-5.14539 -0.666667,23.89097 c -0.45838,16.42673 -1.150323,24.05154 -2.214715,24.40491 -1.641587,0.54499 -5.136115,-2.71612 -10.921206,-10.19169 l -3.530746,-4.56248 -0.357017,-140.98938 -0.357018,-140.98939 3.48389,0.38244 c 5.399761,0.59275 8.485521,4.71664 9.86321,13.1815 0.686371,4.21722 1.670306,40.33891 2.186519,80.2704 0.516215,39.93149 1.19835,72.60272 1.515855,72.60272 0.317505,0 2.102836,-1.2 3.9674,-2.66667 1.864565,-1.46666 4.209203,-2.66666 5.210307,-2.66666 1.415963,0 1.820188,-2.94358 1.820188,-13.25464 0,-7.29006 0.49654,-13.56152 1.103423,-13.9366 1.414953,-0.8745 73.20223,-0.8204 131.08667,0.0988 43.81086,0.69568 44.91998,0.64908 47.56773,-1.99867 3.81413,-3.81413 2.43776,-7.9968 -2.90474,-8.82715 -2.30252,-0.3579 -42.88641,-1.02621 -90.18641,-1.48517 -47.300005,-0.45895 -86.268188,-1.09911 -86.595966,-1.42259 -1.166083,-1.15076 -1.726635,-94.05089 -0.574258,-95.17133 0.64362,-0.62578 40.770219,-1.86307 89.170224,-2.74952 48.4,-0.88647 89.35,-2.11622 91,-2.73278 2.00757,-0.75017 3,-2.21912 3,-4.44045 0,-4.38303 -4.05484,-6.60525 -8.42181,-4.61553 -2.3773,1.08317 -3.9852,1.07829 -6.03424,-0.0183 -2.06468,-1.10499 -24.32809,-1.08793 -85.34587,0.0653 -45.403877,0.85819 -83.437854,1.22062 -84.519949,0.80538 -1.082094,-0.41524 -2.338468,-3.07524 -2.791942,-5.91111 -0.972662,-6.08269 -7.016472,-12.54591 -14.747189,-15.77055 -9.399549,-3.92076 -8.81168,0.79779 -8.74683,-70.206585 C 15.126672,19.996702 15.790809,8.187108 19.455181,4.5227364 23.693399,0.28451796 30.91455,0.19597971 372.34408,0.19597971 c 341.42953,0 348.65068,0.0885383 352.88891,4.32675669 4.08037,4.0803823 4.327,14.2531916 4.3856,180.9014936 0.0556,157.97252 -0.0719,167.42715 -2.2745,168.79581 -4.85054,3.014 -95.10589,30.28466 -96.25397,29.08315 -0.66975,-0.70092 -0.69818,-27.74648 -0.0664,-63.22489 0.60717,-34.1 1.51734,-101.45 2.0226,-149.66667 l 0.91866,-87.66667 h -5.95918 -5.95919 l -1.00065,91.66667 c -1.93943,177.66641 -2.61904,212.11871 -4.21578,213.71468 -0.83269,0.83229 -17.63269,6.26505 -37.33333,12.07281 -19.70066,5.80776 -47.51938,14.4213 -61.81938,19.1412 -48.76431,16.09528 -73.44141,23.57598 -76.38888,23.15676 l -2.94451,-0.41878 V 262.41144 82.744597 l -5.47248,1.81e-4 -5.47248,1.82e-4 -0.94784,25.24165 c -0.52132,13.88291 -0.82514,95.81935 -0.67517,182.08098 0.15681,90.19104 -0.23117,157.32976 -0.913,157.99342 -1.4764,1.43704 -28.62409,10.10052 -35.85236,11.44134 -2.93334,0.54412 -81.61655,1.20306 -174.85161,1.4643 -154.128913,0.43185 -169.592254,0.28214 -170.333331,-1.64907 z m -3.815072,-80.55442 c 2.515429,-0.0153 3,-0.74568 3,-4.52204 0,-7.07897 -7.321447,-22.16282 -10.757459,-22.16282 -0.689808,0 -1.242541,6.29694 -1.242541,14.1555 0,14.02911 0.02679,14.14834 3,13.35155 1.65,-0.44219 4.35,-0.81217 6,-0.82219 z M 441.67742,460.0783 c 1.1,-0.71088 1.4,-1.33756 0.66666,-1.39263 -0.73333,-0.0551 6.16667,-2.49845 15.33334,-5.42974 9.16666,-2.9313 30.63593,-9.81894 47.70948,-15.30586 17.07356,-5.48692 31.62356,-9.61732 32.33333,-9.17864 1.39679,0.86325 1.8098,27.06887 0.4812,30.53115 -0.71781,1.87061 -6.33304,2.10675 -49.66667,2.08864 -32.03646,-0.0134 -48.16877,-0.46541 -46.85734,-1.31292 z m 111.7768,-17.58735 c 0.24389,-10.49363 0.84389,-19.47912 1.33333,-19.96777 0.48943,-0.48864 18.28987,-6.01583 39.55654,-12.28263 79.53045,-23.43579 127.36884,-38.95292 129.50884,-42.00821 1.10383,-1.57594 2.523,-2.54639 3.15374,-2.15658 0.63072,0.38982 1.42428,-0.65014 1.76346,-2.31102 0.33918,-1.66088 0.53208,15.88022 0.42866,38.98022 -0.18647,41.65038 -0.21378,42.0361 -3.281,46.33639 -1.70112,2.38502 -5.25382,5.98502 -7.89487,8 l -4.80189,3.66362 -80.10514,0.41265 -80.10514,0.41267 z"
         id="path1099" />
      <path
         style="fill:#eaebee;stroke-width:1.33333"
         d="m 45.153389,459.30258 c -0.445125,-1.15997 -0.809319,-10.15997 -0.809319,-20 0,-16.94084 -0.140176,-17.89095 -2.639568,-17.89095 -1.72954,0 -3.561713,-1.80756 -5.31428,-5.24287 -1.471092,-2.88357 -3.283287,-5.61898 -4.027099,-6.07869 -0.89634,-0.55396 -1.352386,7.78859 -1.352386,24.73947 0,21.80664 -0.275882,25.34632 -1.872225,24.02147 C 26.851918,456.9533 26.474961,440.1203 25.359033,290.0783 24.574706,184.62168 23.997259,171.5994 19.997223,169.16172 c -4.434979,-2.70275 -5.273646,-3.55067 -4.815667,-4.86884 0.823391,-2.36989 8.62448,2.22845 10.51734,6.19944 1.832271,3.84388 3.69977,65.69292 3.882584,128.58598 0.05276,18.15 0.602931,33 1.222606,33 0.619676,0 2.163053,-1.14518 3.429727,-2.54483 1.266673,-1.39967 4.059665,-3.27245 6.206649,-4.16177 l 3.903608,-1.61692 V 310.5832 297.41163 l 41.666668,-0.21004 c 22.916672,-0.11547 42.566672,-0.0376 43.666672,0.17329 1.1,0.21084 22.2018,0.65355 46.8929,0.98382 44.09615,0.5898 44.94214,0.55122 47.66667,-2.17331 3.47935,-3.47935 3.50839,-6.03913 0.10707,-9.44043 -2.46609,-2.46609 -4.49696,-2.67198 -27,-2.73744 -43.00808,-0.12506 -152.275616,-1.42705 -152.667644,-1.81908 -0.208684,-0.20869 -0.518837,-21.31884 -0.689228,-46.91145 l -0.309774,-46.53203 36.000001,-0.87675 c 19.8,-0.48221 59.949435,-1.30437 89.220965,-1.82701 l 53.22095,-0.95027 3.11172,-3.11172 c 2.68846,-2.68848 2.90292,-3.56993 1.57669,-6.48068 -1.89855,-4.16688 -5.13427,-5.3021 -9.47512,-3.32429 -2.48772,1.13348 -4.04333,1.12349 -6.21723,-0.04 -2.2054,-1.18029 -22.49482,-1.17304 -84.77069,0.0303 -45.029251,0.87008 -82.800444,1.22544 -83.93599,0.78968 -1.135547,-0.43568 -2.06463,-2.22102 -2.06463,-3.96734 0,-6.02438 -7.012483,-13.52053 -16.524806,-17.66454 -8.852362,-3.85651 -12.007139,-7.64744 -5.36122,-6.44231 10.805131,1.95935 23.423041,12.35304 25.28431,20.82735 l 0.874818,3.98301 60.863448,-0.97959 c 33.4749,-0.53878 70.36943,-1.35149 81.98785,-1.80604 l 21.12439,-0.82644 -4.10593,-5.1601 c -8.22408,-10.33558 -7.80319,-21.16395 1.05432,-27.12448 12.27883,-8.26286 27.96363,3.13974 24.01085,17.45549 -0.72077,2.61045 -2.78745,6.50153 -4.5926,8.64683 -3.46114,4.11334 -4.21532,6.84893 -1.88816,6.84893 0.76667,0 2.86667,1.47273 4.66667,3.27273 4.23836,4.23835 4.25991,10.09748 0.0551,14.98626 l -3.21763,3.74101 -56.44904,0.96563 c -31.04697,0.5311 -71.007267,1.3488 -88.800651,1.8171 l -32.351606,0.85148 0.351605,42.84957 0.351646,42.84956 7,0.40301 c 3.85,0.22165 6.994176,-0.0784 6.987059,-0.66667 -0.0071,-0.58832 -2.099611,-3.69462 -4.649984,-6.9029 -8.757106,-11.01611 -8.555058,-21.67322 0.526769,-27.7847 5.539788,-3.72792 11.419014,-3.88254 17.051061,-0.44844 10.250617,6.25024 10.159296,16.13334 -0.282411,30.56346 -1.789765,2.4734 -2.928844,5.0234 -2.531284,5.66666 0.400621,0.64822 34.314356,1.16958 76.080046,1.16958 h 75.35722 l 3.89742,3.89744 c 4.18488,4.18486 4.61574,6.03972 2.62139,11.28522 -2.78423,7.32308 -1.31145,7.22294 -95.05728,6.46323 L 48.3441,301.02459 v 11.30348 11.30348 l 4.997703,3.23412 c 8.98711,5.81575 9.967671,17.23267 2.266155,26.3854 -4.775476,5.67532 -7.263858,12.48746 -7.263858,19.88535 0,5.18597 0.664851,7.10167 3.335362,9.61048 6.840956,6.42675 6.779101,15.54625 -0.173493,25.57885 l -3.566318,5.1462 0.703412,22.30319 c 0.386876,12.26675 0.427877,23.05319 0.09111,23.96986 -0.846442,2.304 -2.610503,2.08606 -3.580758,-0.44239 z m -2.142652,-64.0336 c 0,-1.02154 -1.2,-1.85735 -2.666667,-1.85735 -2.510111,0 -3.625521,2.59671 -1.869645,4.35257 1.297526,1.29754 4.536312,-0.48398 4.536312,-2.49522 z m 1.3155,-21.57714 c 0.02641,-6.49678 -9.775883,-24.28021 -13.383355,-24.28021 -1.278064,0 -1.860154,30.96088 -0.605675,32.21536 0.362892,0.36289 3.654867,-0.28711 7.3155,-1.44444 6.203174,-1.96119 6.656909,-2.40249 6.67353,-6.49071 z m 3.12926,-33.04436 c -1.056195,-2.7524 -4.44476,-2.33925 -4.44476,0.54192 0,1.34446 0.394795,2.83924 0.877321,3.32178 1.414388,1.41438 4.366092,-1.78244 3.567439,-3.8637 z m 20.888574,-83.82382 c 0,-1.05672 -0.65228,-2.32444 -1.449509,-2.81716 -1.882696,-1.16358 -4.452528,1.40626 -3.288959,3.28896 1.306953,2.11469 4.738468,1.77302 4.738468,-0.4718 z M 216.34408,148.07829 c 0,-3.03178 -3.34384,-3.6331 -4.43215,-0.79702 -0.83677,2.18058 0.14653,3.46369 2.65437,3.46369 0.97778,0 1.77778,-1.2 1.77778,-2.66667 z m 156.66667,312.36853 c 1.46666,-0.36051 3.26666,-1.11295 4,-1.67208 0.73333,-0.55913 10.33333,-3.84721 21.33333,-7.30685 11,-3.45963 20.55876,-6.82635 21.24168,-7.48159 0.75627,-0.72562 1.17862,-71.70028 1.08038,-181.54968 L 420.50483,82.078293 218.09112,81.40091 C 106.76357,81.028349 15.527403,80.578349 15.344069,80.40091 15.160736,80.22347 15.037216,66.428293 15.06958,49.744959 15.145004,10.864808 16.656488,4.2918794 26.053625,1.9790815 c 5.60814,-1.38025979 686.972775,-1.38025979 692.580905,0 9.3893,2.3108662 10.90858,8.8979585 10.98406,47.6232255 0.0513,26.335178 -0.2105,30.294037 -2.05022,31.000001 -1.15997,0.445125 -21.2788,0.809318 -44.70851,0.809318 -32.916,0 -42.71653,0.378858 -43.11449,1.666667 -0.28327,0.916667 -0.8688,25.066667 -1.30119,53.666667 l -0.78616,52 2.83882,-4.38309 c 9.26764,-14.30916 29.18058,-8.76864 29.18058,8.11913 0,4.63255 -1.05776,7.31204 -5.15046,13.04691 -2.83275,3.96937 -5.57319,8.56705 -6.08984,10.21705 -1.264,4.03664 -6.89295,4.11444 -8.16302,0.1128 -0.504,-1.58795 -3.54442,-6.72587 -6.75652,-11.4176 l -5.84016,-8.53043 -0.0497,36.41762 c -0.0273,20.02969 -0.59248,60.41761 -1.25581,89.75095 -0.66332,29.33333 -0.79092,53.73305 -0.28356,54.2216 0.50736,0.48854 19.89204,-5.01276 43.07705,-12.22511 23.18503,-7.21235 44.03503,-13.40973 46.33334,-13.77195 3.96365,-0.62468 5.62318,0.72538 2.93437,2.38715 -3.44356,2.12824 -95.3891,29.93181 -96.11634,29.06479 -0.46585,-0.5554 -0.40048,-28.30982 0.14528,-61.67648 0.54576,-33.36667 1.1925,-100.56667 1.4372,-149.33334 l 0.44487,-88.666667 h -6.66667 -6.66666 l -0.96514,74.666667 c -1.98072,153.23679 -3.29866,230.04159 -3.9588,230.70172 -0.37396,0.37395 -15.01905,4.89112 -32.54465,10.03816 -17.52562,5.14706 -46.26475,14.08139 -63.86475,19.85408 -50.72915,16.63887 -76.62695,24.37326 -78.80842,23.53615 -1.79409,-0.68845 -1.99264,-20.90009 -1.76606,-179.78621 L 439.3582,82.078293 h -6.50706 -6.50706 l -0.85081,13.333334 c -0.46795,7.333333 -0.89819,89.233333 -0.95611,182.000003 -0.1,160.27723 -0.22353,168.74504 -2.48252,170.24239 -4.18564,2.77441 -42.17928,13.76333 -47.03147,13.60295 -2.86484,-0.0947 -3.64513,-0.40883 -2.01242,-0.81015 z m 97.87733,-31.82078 c 12.9008,-4.09874 36.05601,-11.57042 51.45601,-16.60374 15.4,-5.03332 41.9483,-13.20186 58.99624,-18.15231 21.33033,-6.194 31.17563,-9.64387 31.57149,-11.06292 0.77568,-2.78045 3.82914,-276.56257 3.23503,-290.06211 l -0.46943,-10.666667 -83.33333,-0.368109 c -45.83334,-0.20246 -84.68334,-0.04103 -86.33334,0.358736 l -3,0.726845 v 40.601085 40.60108 l 4.85273,-3.29316 c 6.05606,-4.10974 12.08411,-4.19182 17.9501,-0.2444 8.72197,5.86932 9.27613,16.7852 1.35794,26.74894 -2.09125,2.6315 -4.53788,6.56045 -5.43693,8.73097 -0.89907,2.17052 -2.46236,4.26401 -3.474,4.65223 -2.0724,0.79525 -5.91651,-2.48844 -5.91651,-5.05398 0,-0.92544 -2.07502,-4.03257 -4.61116,-6.90476 l -4.61117,-5.22214 -0.0555,126.33333 c -0.0513,116.78027 0.1116,126.33334 2.15516,126.33334 1.21586,0 12.76586,-3.35352 25.66667,-7.45226 z m 78.16126,-89.3663 c -1.12123,-1.12122 -2.04441,-2.74572 -2.05153,-3.61002 -0.007,-0.86428 -2.0996,-4.19637 -4.64998,-7.40465 -5.99701,-7.544 -7.68848,-13.56044 -5.59634,-19.90571 1.91925,-5.82097 8.89446,-10.92773 14.92593,-10.92773 6.03147,0 13.00668,5.10676 14.92593,10.92773 2.00748,6.08851 0.43096,12.3315 -4.76516,18.86995 -2.09125,2.63151 -4.53788,6.56045 -5.43693,8.73097 -2.00075,4.8302 -4.64656,6.02482 -7.35192,3.31946 z m 5.29475,-24.51478 c 0,-2.44364 -0.80232,-3.44726 -3.00596,-3.76018 -1.80304,-0.25603 -3.32746,0.41093 -3.80932,1.66666 -1.32756,3.45956 0.53317,6.31892 3.80932,5.85371 2.20364,-0.31292 3.00596,-1.31655 3.00596,-3.76019 z m 34.70525,3.18144 c -1.12123,-1.12121 -2.04441,-2.74572 -2.05153,-3.61001 -0.007,-0.86428 -2.0996,-4.19637 -4.64998,-7.40465 -5.99701,-7.544 -7.68848,-13.56044 -5.59634,-19.90571 1.91925,-5.82097 8.89446,-10.92773 14.92593,-10.92773 6.03147,0 13.00668,5.10676 14.92594,10.92773 2.00748,6.08851 0.43096,12.33149 -4.76516,18.86995 -2.09126,2.6315 -4.53788,6.56045 -5.43694,8.73097 -2.00075,4.8302 -4.64656,6.02481 -7.35192,3.31945 z m 5.7216,-24.20102 c 0.54687,-3.83375 -3.22304,-5.42232 -6.08237,-2.56299 -1.7704,1.7704 -1.82791,2.46183 -0.35256,4.23951 2.3994,2.8911 5.91398,1.97544 6.43493,-1.67652 z M 657.44185,192.9678 c 0.29068,-1.49877 -0.46937,-2.22284 -2.33333,-2.22284 -1.52043,0 -2.76443,0.8 -2.76443,1.77777 0,4.08367 4.31897,4.46074 5.09776,0.44507 z M 459.67742,175.39336 c 0,-1.73136 -1.03879,-2.79593 -3,-3.07447 -2.20935,-0.31377 -3,0.24262 -3,2.11111 0,1.39545 0.42074,2.95792 0.93498,3.47216 1.76872,1.76872 5.06502,0.13601 5.06502,-2.5088 z M 79.744485,52.585675 C 85.676057,46.477782 86.695612,40.764686 83.245821,32.965863 81.265142,28.488211 79.165809,26.198051 75.176159,24.162684 68.781216,20.900228 64.987802,20.721627 58.618011,23.383095 45.68111,28.788478 43.643002,46.650418 55.037352,54.763911 c 8.860868,6.309494 17.176375,5.57638 24.707133,-2.178236 z m 611.370955,3.127383 c 2.78021,-1.873585 5.49677,-5.439316 7.1106,-9.333333 2.59359,-6.258038 2.59356,-6.344891 -0.004,-12.612161 -6.72066,-16.21624 -28.36838,-16.047469 -34.59998,0.269748 -3.4245,8.966934 -0.59734,16.982926 7.79432,22.099651 5.82619,3.55245 14.06138,3.375235 19.69891,-0.423905 z m -502.2214,-4.441145 c 6.27566,-2.408198 -3.20513,-3.19362 -38.54997,-3.19362 -34.93654,0 -44.78295,0.786078 -39.00831,3.114189 2.40586,0.969945 75.04377,1.044337 77.55828,0.07943 z m 74.78337,-19.193621 c 0.54572,-0.882996 -25.12349,-1.333333 -76,-1.333333 -50.87651,0 -76.54573,0.450337 -76,1.333333 1.13329,1.833714 150.86671,1.833714 152,0 z M 443.80495,459.51034 c 2.27015,-0.98831 16.67015,-5.7488 32,-10.57889 15.32985,-4.8301 35.04436,-11.19801 43.81002,-14.15091 8.76565,-2.9529 16.41565,-5.36891 17,-5.36891 0.58434,0 1.06245,7.2 1.06245,16 0,8.8 -0.53581,16 -1.19068,16 -2.098,0 -2.80932,-3.9461 -2.80932,-15.58504 0,-10.13713 -0.24449,-11.27311 -2.25989,-10.49973 -5.78676,2.2206 -70.03215,22.08104 -77.51447,23.96239 -10.77028,2.70805 -16.0776,2.82425 -10.09811,0.22109 z m 109.33631,0.88088 c 0.91081,-0.60952 1.57439,-7.52787 1.75648,-18.31292 0.16096,-9.53334 0.73051,-17.78162 1.26568,-18.32952 0.53517,-0.54791 17.44476,-5.84378 37.57685,-11.76862 58.69433,-17.2736 125.52022,-38.3697 130.93716,-41.33522 l 5,-2.73727 v 3.80157 c 0,2.7657 -0.68347,3.85306 -2.50824,3.99052 -1.37954,0.10387 -27.62954,8.00116 -58.33334,17.54943 -30.7038,9.54827 -67.82509,20.85132 -82.49176,25.11788 l -26.66667,7.7574 -0.37844,14.31025 -0.37844,14.31025 3.71177,0.0472 c 4.24934,0.0541 8.88872,2.50414 9.37844,4.95274 0.244,1.22 -2.43601,1.6612 -10,1.64626 -5.68333,-0.0107 -9.67461,-0.46123 -8.86949,-1 z M 360.82727,237.72455 c -0.83424,-0.53877 -2.43495,-3.18487 -3.55711,-5.88021 -1.12216,-2.69534 -4.4672,-7.97088 -7.43343,-11.72343 -8.64533,-10.93718 -9.00128,-22.13399 -0.95932,-30.17595 7.69483,-7.69483 20.57184,-7.69483 28.26667,0 8.04196,8.04196 7.68601,19.23877 -0.95932,30.17595 -2.96623,3.75255 -6.31127,9.02809 -7.43343,11.72343 -1.8375,4.41353 -3.88464,6.85978 -5.74058,6.85978 -0.36667,0 -1.34923,-0.4408 -2.18348,-0.97957 z"
         id="path1097" />
      <path
         style="fill:#cfd3d9;stroke-width:1.33333"
         d="m 377.01075,460.0783 c 1.46666,-0.63025 3.86666,-1.14591 5.33333,-1.14591 h 2.66667 l -2.66667,1.14591 c -1.46667,0.63025 -3.86667,1.14591 -5.33333,1.14591 h -2.66667 z m 64.41667,0.42252 c 0.96249,-0.38516 2.1125,-0.3378 2.55556,0.1052 0.44305,0.44305 -0.34446,0.75819 -1.75,0.70029 -1.55327,-0.064 -1.8692,-0.37992 -0.80556,-0.80554 z m 113.58333,-1.75585 c 1.04398,-1.95068 2.79176,-2.66667 6.50956,-2.66667 3.16863,0 6.24019,1.00413 8.15711,2.66667 l 3.07469,2.66666 h -9.58425 c -9.17109,0 -9.52273,-0.11493 -8.15711,-2.66666 z m -108.25,0.42252 c 0.96249,-0.38516 2.11251,-0.3378 2.55556,0.1052 0.44305,0.44305 -0.34445,0.75818 -1.75,0.70029 -1.55327,-0.064 -1.8692,-0.37992 -0.80556,-0.80555 z M 37.236942,415.83226 c -1.035391,-2.43135 -3.466597,-5.88155 -5.402683,-7.66712 -4.695209,-4.3302 -6.777287,-12.16688 -4.813471,-18.1173 1.826444,-5.53418 8.519727,-9.96954 15.044764,-9.96954 8.540293,0 16.126533,11.04188 13.054195,19.00057 -2.424239,6.27983 -11.826391,20.35099 -13.86713,20.75339 -1.357282,0.26764 -2.817855,-1.18723 -4.015675,-4 z m 6.840615,-20.84392 c -0.567067,-2.9765 -6.164899,-3.7412 -7.221948,-0.98658 -0.445431,1.16078 -0.07975,2.99024 0.812634,4.0655 2.1037,2.53481 7.028127,0.1692 6.409314,-3.07892 z M 727.73437,373.50376 c -0.42192,-0.68266 -0.15732,-1.61808 0.58798,-2.07869 0.74529,-0.46061 1.35508,0.0979 1.35508,1.2412 0,2.34204 -0.80008,2.68688 -1.94306,0.83749 z m -683.952326,-7.7588 c -0.553559,-0.55 -1.84189,-2.8 -2.862956,-5 -1.021067,-2.2 -3.968155,-6.91552 -6.549085,-10.47892 -6.307499,-8.70856 -6.202174,-12.99189 0.483871,-19.67794 5.712087,-5.71208 10.735983,-6.6692 17.270226,-3.29022 8.684884,4.49112 9.724328,14.62683 2.568776,25.04835 -2.668156,3.88597 -5.473307,8.7154 -6.233666,10.73207 -1.392826,3.69413 -2.822598,4.5093 -4.677166,2.66666 z m 5.034024,-22.30682 c 1.033385,-2.69296 -2.401376,-6.59474 -4.945854,-5.61832 -2.562437,0.98329 -2.967166,7.09948 -0.526144,7.95096 2.287175,0.79781 4.658662,-0.21312 5.471998,-2.33264 z m 499.423302,-7.69318 c -0.84255,-1.65 -3.68366,-6.17942 -6.31359,-10.0654 -5.22671,-7.72294 -6.10051,-13.64914 -2.89551,-19.63773 5.06928,-9.47204 20.22502,-9.47204 25.2943,0 3.205,5.98859 2.3312,11.91479 -2.89551,19.63773 -2.62993,3.88598 -5.47104,8.4154 -6.31359,10.0654 -0.84253,1.65 -2.38965,3 -3.43805,3 -1.0484,0 -2.59552,-1.35 -3.43805,-3 z m 6.71822,-17.60261 c 3.54195,-4.26777 -1.6603,-10.82369 -6.28017,-7.91432 -4.61644,2.90721 -2.97177,9.85027 2.33333,9.85027 1.28708,0 3.06316,-0.87118 3.94684,-1.93595 z m 33.28178,-3.73072 c -0.84255,-1.65 -3.68366,-6.17943 -6.31359,-10.0654 -5.22671,-7.72295 -6.10051,-13.64915 -2.89551,-19.63773 5.06928,-9.47204 20.22502,-9.47204 25.2943,0 3.205,5.98858 2.3312,11.91478 -2.89551,19.63773 -2.62993,3.88597 -5.47104,8.4154 -6.31359,10.0654 -0.84253,1.65 -2.38965,3 -3.43805,3 -1.0484,0 -2.59552,-1.35 -3.43805,-3 z m 7.28832,-18.66667 c 3.13783,-4.98262 -4.62103,-10.30838 -8.09547,-5.55681 -2.26204,3.09352 -2.21113,3.91 0.40704,6.52817 2.59879,2.59879 5.68572,2.20879 7.68843,-0.97136 z M 62.895598,279.0783 c -0.760359,-2.01667 -3.56551,-6.8461 -6.233666,-10.73207 -5.301925,-7.72185 -6.190951,-13.61001 -2.965011,-19.63773 5.069279,-9.47204 20.225021,-9.47204 25.2943,0 3.22594,6.02772 2.336914,11.91588 -2.965011,19.63773 -2.668156,3.88597 -5.473307,8.7154 -6.233666,10.73207 -0.760358,2.01666 -2.312172,3.66666 -3.448473,3.66666 -1.136301,0 -2.688115,-1.65 -3.448473,-3.66666 z m 6.518969,-22.49696 c 0.499287,-3.49934 -3.47302,-5.33862 -6.022877,-2.78876 -1.011326,1.01133 -1.420979,2.83196 -0.926908,4.11949 1.246524,3.24839 6.438272,2.25428 6.949785,-1.33073 z M 361.14316,236.4394 c -0.56883,-0.56528 -1.80891,-2.87769 -2.75571,-5.13872 -0.9468,-2.26102 -4.49389,-7.87702 -7.88241,-12.48001 -5.24507,-7.12491 -6.15965,-9.28879 -6.15217,-14.55572 0.0155,-10.92886 7.84776,-18.83575 18.65788,-18.83575 10.81012,0 18.64236,7.90689 18.65788,18.83575 0.008,5.23937 -0.90622,7.42958 -5.96699,14.30417 -3.28668,4.46464 -7.03668,10.33735 -8.33333,13.05048 -2.42614,5.07643 -4.41631,6.61732 -6.22515,4.8198 z m 289.83976,-22.43433 c -0.71235,-1.87362 -3.3975,-6.1599 -5.967,-9.52508 -3.72594,-4.8797 -4.67183,-7.32148 -4.67183,-12.0601 0,-4.97933 0.73419,-6.67578 4.53333,-10.47493 5.48626,-5.48625 11.80586,-6.08125 17.44843,-1.6428 8.24345,6.48431 8.52568,15.20968 0.80719,24.95508 -2.2233,2.80713 -4.64548,6.69024 -5.38264,8.62913 -1.70227,4.47729 -5.08778,4.53666 -6.76748,0.11867 z m 6.68041,-18.57647 c 2.37573,-2.86257 0.61679,-6.28828 -2.96632,-5.77716 -3.41724,0.48747 -4.84963,4.86967 -2.15077,6.58 2.49961,1.58408 3.23142,1.46927 5.11709,-0.80284 z m -204.48206,-0.35031 c -1.04388,-2.01666 -4.05929,-6.87696 -6.70091,-10.80065 -5.41626,-8.04496 -5.951,-12.43112 -2.20782,-18.10944 8.63774,-13.10329 27.27154,-7.69044 27.27154,7.92197 0,2.9887 -1.62274,6.92175 -4.78169,11.58939 -2.62993,3.88597 -5.47104,8.4154 -6.31359,10.0654 -2.06573,4.04551 -4.9661,3.77944 -7.26753,-0.66667 z m 7.10971,-16.93601 c 2.6843,-3.23439 0.40221,-7.61943 -3.71662,-7.14151 -3.95905,0.45939 -5.39556,4.06687 -2.84378,7.14158 2.04718,2.4667 4.51318,2.46668 6.5604,-7e-5 z m -248.97465,-7.62507 c -0.90141,-0.90141 -1.63892,-2.22501 -1.63892,-2.94134 0,-0.71632 -2.22,-4.52576 -4.93333,-8.4654 -5.38688,-7.82151 -6.29064,-13.6748 -3.04715,-19.73531 5.06928,-9.47204 20.22501,-9.47204 25.29429,0 3.15699,5.89888 2.3183,11.91223 -2.7389,19.63773 -2.5438,3.88598 -5.27811,8.2654 -6.07624,9.73207 -1.76247,3.23875 -4.64782,3.98419 -6.85975,1.77225 z m 6.12127,-22.12517 c 0.57246,-4.01323 -3.51886,-5.60443 -5.9304,-2.30644 -1.3491,1.84497 -1.41331,2.88796 -0.26315,4.27381 2.19111,2.64012 5.69507,1.5271 6.19355,-1.96737 z M 16.677403,80.528585 c -1.265388,-0.510595 -1.661794,-7.949037 -1.646426,-30.894736 0.02613,-39.020993 1.292251,-43.7046562 12.9079,-47.7493367 7.524944,-2.62025745 681.285473,-2.62025745 688.810403,0 11.61376,4.0440191 12.88177,8.7315947 12.90791,47.7177947 0.0176,26.312085 -0.25071,30.294655 -2.08882,31.000001 -2.52388,0.968502 -708.4895,0.89529 -710.890967,-0.07372 z M 74.115818,58.259591 C 92.958729,50.386521 88.94408,24.193687 68.390692,20.907068 55.133944,18.787228 43.038618,32.503474 47.075904,45.078293 51.032873,57.402951 62.632658,63.057562 74.115818,58.259591 Z M 691.14692,57.067531 C 697.0461,53.14721 702.02188,43.477297 700.91805,38.078292 698.4422,25.96844 686.80062,18.121244 676.07736,21.334014 c -7.00675,2.09927 -12.37326,7.454048 -14.46402,14.432381 -1.48358,4.951757 -1.3378,6.072405 1.54638,11.887595 5.87694,11.849301 18.12353,15.968463 27.9872,9.413541 z M 190.39965,51.802463 c 0.51729,-0.518372 0.58524,-1.868372 0.15099,-3 -0.68698,-1.790246 -5.90958,-2.057504 -40.20657,-2.057504 -34.91177,0 -39.51065,0.243975 -40.23613,2.134567 -0.45051,1.174011 0.0183,2.679485 1.04184,3.345497 2.15406,1.401654 77.83214,0.998138 79.24987,-0.42256 z m 73.67776,-18.657504 c 0.88,-0.88 1.6,-2.08 1.6,-2.666667 0,-0.586666 -35.1,-1.066666 -78,-1.066666 -42.9,0 -78,0.48 -78,1.066666 0,4.068294 3.62652,4.266667 78,4.266667 56.4,0 75.19359,-0.393583 76.4,-1.6 z"
         id="path1095" />
      <path
         style="fill:#b9c4ca;stroke-width:1.33333"
         d="m 555.01075,459.41163 c 2.12964,-2.56605 10.70778,-2.59189 14.0785,-0.0424 2.3578,1.78335 1.77256,1.96136 -6.57508,2 -7.99659,0.0369 -8.95194,-0.21224 -7.50342,-1.9576 z M 38.353594,416.10831 c -0.460264,-1.45017 -2.904723,-5.11176 -5.432131,-8.13687 -5.330955,-6.38073 -6.540202,-10.1197 -5.34073,-16.51344 1.517551,-8.08925 12.998968,-12.8684 20.837192,-8.67352 7.099312,3.79944 8.17969,15.20067 2.187477,23.08443 -1.759686,2.31516 -4.203765,6.15939 -5.431288,8.54272 -2.514528,4.88216 -5.568375,5.64184 -6.82052,1.69668 z m 5.919742,-17.94479 c 1.19921,-1.44496 1.217133,-2.60982 0.07304,-4.74757 -1.76183,-3.29201 -6.329905,-3.17464 -8.45549,0.21725 -2.896964,4.62282 4.836806,8.80256 8.382444,4.53032 z m -1.758747,-36.41856 c -1.04388,-2.01666 -4.059288,-6.87696 -6.700908,-10.80065 -5.2859,-7.85133 -5.970035,-12.56483 -2.550084,-17.56933 4.519744,-6.61388 11.009944,-8.75464 17.378931,-5.73236 9.341591,4.43288 10.650054,15.1591 3.009089,24.66726 -2.267614,2.82175 -4.748168,6.92399 -5.512341,9.1161 -1.726103,4.9515 -3.183979,5.03418 -5.624687,0.31898 z m 6.956108,-18.92529 c 0.593669,-4.20591 -3.136457,-7.18672 -6.644147,-5.30947 -1.365364,0.73072 -2.48248,2.38747 -2.48248,3.68167 0,5.99432 8.301299,7.47491 9.126627,1.6278 z m 499.368363,-8.40804 c -1.23209,-2.38333 -3.9342,-6.44183 -6.00468,-9.01887 -9.22648,-11.48382 -4.39505,-25.31446 8.84304,-25.31446 13.23809,0 18.06952,13.83064 8.84304,25.31446 -2.07048,2.57704 -4.77259,6.63554 -6.00468,9.01887 -1.23209,2.38333 -2.50936,4.33333 -2.83836,4.33333 -0.329,0 -1.60627,-1.95 -2.83836,-4.33333 z m 6.17169,-15.66667 c 1.46667,-1.46666 2.66667,-3.26666 2.66667,-4 0,-0.73333 -1.2,-2.53333 -2.66667,-4 -1.46666,-1.46666 -3.26666,-2.66666 -4,-2.66666 -0.73333,0 -2.53333,1.2 -4,2.66666 -1.46666,1.46667 -2.66666,3.26667 -2.66666,4 0,0.73334 1.2,2.53334 2.66666,4 1.46667,1.46667 3.26667,2.66667 4,2.66667 0.73334,0 2.53334,-1.2 4,-2.66667 z m 33.82831,-5.66666 c -1.23209,-2.38334 -3.9342,-6.44183 -6.00468,-9.01887 -9.22648,-11.48383 -4.39505,-25.31447 8.84304,-25.31447 13.2381,0 18.06952,13.83064 8.84304,25.31447 -2.07048,2.57704 -4.77259,6.63553 -6.00468,9.01887 -1.23209,2.38333 -2.50936,4.33333 -2.83836,4.33333 -0.329,0 -1.60627,-1.95 -2.83836,-4.33333 z m 7.63683,-17.24628 c 1.04444,-1.95154 0.86143,-3.40752 -0.73444,-5.84314 -2.34876,-3.58466 -3.65951,-3.91102 -7.48502,-1.86368 -3.43104,1.83624 -3.29652,7.29932 0.24072,9.77691 3.28364,2.29995 6.01991,1.59003 7.97874,-2.07009 z M 63.853716,278.30608 c -0.428693,-1.70805 -2.888372,-5.75805 -5.465951,-9 -5.446192,-6.84994 -7.015438,-12.99617 -4.72808,-18.51834 4.489847,-10.83944 20.887009,-10.81994 25.381285,0.0303 2.208143,5.33094 0.757724,11.50188 -4.134153,17.58916 -2.22464,2.76827 -4.670034,6.82676 -5.434207,9.01887 -1.658035,4.75624 -4.533022,5.20656 -5.618894,0.88011 z m 5.557022,-18.49445 c 0.88,-0.88 1.6,-2.33715 1.6,-3.23809 0,-1.87143 -3.620915,-5.82858 -5.333334,-5.82858 -1.48119,0 -5.333333,3.85215 -5.333333,5.33334 0,1.71241 3.957141,5.33333 5.828572,5.33333 0.900952,0 2.358095,-0.72 3.238095,-1.6 z M 359.70825,231.74496 c -1.00821,-2.38333 -4.28032,-7.59534 -7.27136,-11.58226 -6.61928,-8.82317 -8.35245,-14.36559 -6.5423,-20.92138 4.75341,-17.21545 29.4789,-17.21545 34.23232,0 1.81014,6.55579 0.0769,12.09821 -6.54231,20.92138 -2.99104,3.98692 -6.26315,9.19893 -7.27136,11.58226 -1.0082,2.38334 -2.49432,4.33334 -3.30249,4.33334 -0.80818,0 -2.2943,-1.95 -3.3025,-4.33334 z m 292.63584,-16.84807 c 0,-0.64976 -2.53636,-4.97962 -5.63636,-9.62192 -7.31759,-10.95817 -7.66673,-16.98877 -1.31231,-22.66646 3.00927,-2.68878 5.73026,-3.86355 8.94867,-3.86355 3.21841,0 5.9394,1.17477 8.94867,3.86355 6.38337,5.70354 6.02738,11.8954 -1.31231,22.82597 -3.1,4.61665 -5.63636,8.90013 -5.63636,9.51885 0,0.61874 -0.9,1.12497 -2,1.12497 -1.1,0 -2,-0.53163 -2,-1.18141 z m 5.97136,-18.31377 c 2.59879,-2.59879 2.20879,-5.68572 -0.97136,-7.68843 -4.98263,-3.13782 -10.30839,4.62103 -5.55681,8.09547 3.09352,2.26204 3.91,2.21113 6.52817,-0.40704 z m -204.02479,-1.94147 c -1.16704,-2.25681 -4.18246,-6.80277 -6.70091,-10.10213 -2.85728,-3.74324 -4.579,-7.49739 -4.579,-9.98435 0,-8.29796 5.79283,-14.4007 13.71357,-14.44722 13.49804,-0.0793 18.46204,13.66893 9.12947,25.28481 -2.07048,2.57704 -4.77259,6.63553 -6.00468,9.01887 -1.23209,2.38333 -2.50936,4.33333 -2.83836,4.33333 -0.329,0 -1.55304,-1.84649 -2.72009,-4.10331 z m 7.36038,-17.18074 c 1.53742,-2.87267 -1.7527,-8.04928 -5.11589,-8.04928 -5.56368,0 -7.36889,6.55685 -2.70467,9.82381 3.19828,2.24016 6.01388,1.60128 7.82056,-1.77453 z m -249.07202,-7.01434 c -0.86256,-0.86256 -1.56828,-2.26384 -1.56828,-3.11397 0,-0.85013 -2.09462,-4.18013 -4.65474,-7.4 -7.54642,-9.4912 -7.51538,-19.48192 0.076,-24.45597 7.00496,-4.58983 17.4783,-1.55011 20.59646,5.97777 2.28371,5.51335 0.71995,11.66612 -4.6963,18.4782 -2.56012,3.21987 -4.65475,6.5964 -4.65475,7.50341 0,2.83878 -3.31355,4.7954 -5.09839,3.01056 z m 4.83172,-18.63494 c 4.0416,-4.0416 -1.45678,-11.28255 -5.81856,-7.6626 -3.37953,2.80476 -1.46092,9.2626 2.7519,9.2626 0.80666,0 2.18666,-0.72 3.06666,-1.6 z M 15.010736,49.61059 c 0,-19.195979 0.560393,-32.144455 1.514753,-35.000001 C 18.628864,8.3170745 23.554249,3.4036951 29.565044,1.602817 36.83669,-0.57582128 708.627,-0.58539671 715.14513,1.5930436 c 6.29351,2.103375 11.2069,7.0287593 13.00778,13.0395554 0.94902,3.167588 1.52452,16.480545 1.52452,35.267054 v 30.17864 H 372.34408 15.010736 Z m 59.470027,9.31468 C 82.200918,54.477187 87.038342,47.279329 86.981456,40.324826 86.8621,25.733267 71.194835,16.065869 57.166121,21.92744 c -12.928564,5.401899 -15.253663,24.928719 -3.99118,33.519034 7.279694,5.552492 15.404266,6.879065 21.305822,3.478796 z M 692.08828,57.379095 c 4.64549,-2.832282 9.50913,-11.589581 9.55987,-17.213171 0.0161,-1.785134 -1.23396,-5.855202 -2.77793,-9.044593 -7.20514,-14.883867 -29.43544,-14.542815 -36.1135,0.554044 -4.41055,9.970795 -1.35055,20.503159 7.5303,25.918876 5.55264,3.386102 16.06466,3.282359 21.80126,-0.215156 z m -501.126,-5.909062 c 0.88625,-1.067876 1.2243,-2.567876 0.75122,-3.333334 -1.18901,-1.923862 -81.54985,-1.923862 -82.73886,0 -0.47308,0.765458 -0.13502,2.265458 0.75124,3.333334 2.39958,2.891321 78.83681,2.891321 81.2364,0 z m 74.04846,-20.058407 c 0,-2.631722 -1.00368,-2.67118 -76.58897,-3.011031 -46.57705,-0.209423 -77.08065,0.147315 -77.84371,0.910376 -0.69011,0.690108 -0.89203,2.199953 -0.44872,3.355212 0.72287,1.883745 8.75473,2.064957 77.84372,1.756289 76.03407,-0.339696 77.03768,-0.37892 77.03768,-3.010846 z"
         id="path1093" />
      <path
         style="fill:#b0bcc3;stroke-width:1.33333"
         d="m 554.81075,459.74497 c 0.91667,-0.91667 4.30667,-1.66667 7.53334,-1.66667 3.22666,0 6.61666,0.75 7.53333,1.66667 1.33333,1.33333 -0.17333,1.66666 -7.53333,1.66666 -7.36,0 -8.86667,-0.33333 -7.53334,-1.66666 z M 36.210038,411.8753 c -10.56061,-16.00567 -11.108492,-19.92188 -3.748929,-26.797 6.959313,-6.50122 16.832623,-4.10171 20.642564,5.01677 2.282522,5.46284 1.115679,9.70297 -5.260872,19.11721 -2.657635,3.9237 -4.832064,7.6737 -4.832064,8.33334 0,2.86969 -2.591799,0.70869 -6.800699,-5.67032 z m 7.372127,-12.55891 c 4.040889,-4.04089 1.066005,-9.17647 -4.831372,-8.34044 -3.964715,0.56204 -5.0115,6.20841 -1.611843,8.69431 3.061087,2.23832 3.896931,2.19241 6.443215,-0.35387 z m -0.571428,-37.02104 c 0,-0.98061 -2.305205,-5.03061 -5.122679,-9 -6.279059,-8.84621 -7.258048,-12.39149 -4.948279,-17.91955 4.827092,-11.55286 19.328013,-11.52129 24.163894,0.0527 2.341202,5.60328 0.926438,10.60173 -5.313946,18.77451 -2.628445,3.4423 -4.77899,7.0725 -4.77899,8.06705 0,0.99455 -0.9,1.80827 -2,1.80827 -1.1,0 -2,-0.80232 -2,-1.78295 z m 6.070632,-16.96177 c 1.854191,-2.04886 2.137518,-3.2939 1.117543,-4.9109 -2.412702,-3.82492 -5.421135,-5.03085 -7.743078,-3.10381 -2.812783,2.3344 -2.686992,7.62521 0.22157,9.31929 3.227396,1.87979 3.588774,1.80618 6.403965,-1.30458 z m 500.596051,-9.73022 c 0,-0.99454 -2.15055,-4.62474 -4.77899,-8.06712 -6.24038,-8.17277 -7.65514,-13.17122 -5.31394,-18.7745 4.84798,-11.6029 19.33788,-11.6029 24.18586,0 2.3412,5.60328 0.92644,10.60173 -5.31394,18.7745 -2.62844,3.44238 -4.77899,7.07258 -4.77899,8.06712 0,0.99455 -0.9,1.80827 -2,1.80827 -1.1,0 -2,-0.81372 -2,-1.80827 z m 5.56168,-16.39838 c 3.02559,-2.73811 3.09973,-5.51919 0.23167,-8.68836 -2.73811,-3.02559 -5.51919,-3.09974 -8.68836,-0.23167 -3.02559,2.73811 -3.09974,5.51919 -0.23167,8.68836 2.73811,3.02559 5.51919,3.09973 8.68836,0.23167 z m 34.43832,-4.93495 c 0,-0.99455 -2.15055,-4.62475 -4.77899,-8.06712 -6.24038,-8.17277 -7.65514,-13.17123 -5.31394,-18.77451 4.84798,-11.60289 19.33788,-11.60289 24.18587,0 2.3412,5.60328 0.92644,10.60174 -5.31395,18.77451 -2.62844,3.44237 -4.77899,7.07257 -4.77899,8.06712 0,0.99455 -0.9,1.80827 -2,1.80827 -1.1,0 -2,-0.81372 -2,-1.80827 z m 6.03653,-16.89877 c 1.93759,-2.141 2.18477,-3.4653 1.18212,-6.33334 -1.70916,-4.88897 -7.44177,-5.66212 -10.42306,-1.40574 -2.72815,3.89498 -2.68222,4.55949 0.53774,7.77945 3.37962,3.37961 5.61756,3.36923 8.7032,-0.0404 z M 64.344071,278.27003 c 0,-0.99455 -2.150545,-4.62475 -4.77899,-8.06712 -6.240384,-8.17277 -7.655148,-13.17123 -5.313946,-18.77451 4.847994,-11.60289 19.337878,-11.60289 24.185872,0 2.341202,5.60328 0.926438,10.60174 -5.313946,18.77451 -2.628445,3.44237 -4.77899,7.07257 -4.77899,8.06712 0,0.99455 -0.9,1.80827 -2,1.80827 -1.1,0 -2,-0.81372 -2,-1.80827 z m 5.280175,-18.79435 c 3.541941,-4.26777 -1.660312,-10.82369 -6.280175,-7.91432 -4.61644,2.90722 -2.97177,9.85027 2.333333,9.85027 1.287082,0 3.06316,-0.87117 3.946842,-1.93595 z M 359.70705,231.27691 c -1.10338,-2.64077 -4.71144,-8.40023 -8.01789,-12.79879 -5.2658,-7.00505 -6.01175,-8.82767 -6.01175,-14.6888 0,-5.99508 0.53868,-7.23011 5.17647,-11.86789 4.69472,-4.69472 5.82611,-5.17647 12.15687,-5.17647 6.33076,0 7.46214,0.48175 12.15686,5.17647 4.63779,4.63778 5.17647,5.87281 5.17647,11.86789 0,5.86113 -0.74595,7.68375 -6.01175,14.6888 -3.30645,4.39856 -6.9145,10.15802 -8.01789,12.79879 -1.10337,2.64076 -2.59004,4.80139 -3.30369,4.80139 -0.71366,0 -2.20032,-2.16063 -3.3037,-4.80139 z m 291.27728,-20.19862 c -1.511,-2.75 -4.2232,-7.03873 -6.02709,-9.5305 -3.7481,-5.17736 -4.33818,-12.69846 -1.33292,-16.98907 2.62294,-3.74476 9.21992,-6.31196 13.47538,-5.24391 9.65155,2.42238 12.95494,13.49786 6.63124,22.23298 -1.80389,2.49177 -4.51609,6.7805 -6.02709,9.5305 -1.51101,2.75 -3.02291,5.00001 -3.35976,5.00001 -0.33685,0 -1.84875,-2.25001 -3.35976,-5.00001 z m 7.75976,-13.93333 c 2.44949,-2.44949 1.90381,-7.47692 -0.97901,-9.01976 -3.84712,-2.05892 -5.13678,-1.72019 -7.56599,1.98725 -2.06619,3.15342 -2.05501,3.53486 0.17592,6 2.69957,2.983 6.01016,3.39143 8.36908,1.03251 z m -203.73334,-1.5416 c 0,-0.99455 -2.10232,-4.56159 -4.67183,-7.92676 -6.46105,-8.46179 -7.74358,-12.29956 -5.93833,-17.76952 4.10997,-12.45333 19.67675,-13.17508 24.70309,-1.14535 2.3412,5.60328 0.92644,10.60174 -5.31394,18.77451 -2.62844,3.44237 -4.77899,7.07257 -4.77899,8.06712 0,0.99455 -0.9,1.80827 -2,1.80827 -1.1,0 -2,-0.81372 -2,-1.80827 z m 6.00491,-16.86381 c 4.91009,-5.4256 -3.22624,-12.90659 -8.40491,-7.72792 -2.3578,2.3578 -1.94513,7.3998 0.73333,8.95986 3.42666,1.99584 4.97556,1.74711 7.67158,-1.23194 z M 211.58924,167.74496 c -0.514,-1.65 -2.69147,-5.23311 -4.83883,-7.96247 -5.385,-6.84449 -6.76425,-12.26657 -4.49927,-17.68742 4.84799,-11.60289 19.33788,-11.60289 24.18587,0 2.26499,5.42085 0.88573,10.84293 -4.49927,17.68742 -2.14736,2.72936 -4.32482,6.31247 -4.83882,7.96247 -0.514,1.65 -1.75368,3 -2.75484,3 -1.00116,0 -2.24084,-1.35 -2.75484,-3 z m 7.15558,-18.44747 c 0.48055,-4.13402 -2.60833,-7.08953 -6.21358,-5.94526 -6.06186,1.92394 -4.09784,10.53769 2.23585,9.80597 2.72075,-0.31432 3.67292,-1.23847 3.97773,-3.86071 z M 16.677403,79.195252 C 14.505769,78.318978 14.328803,23.96735 16.469898,15.464289 18.126935,8.8835979 22.908126,3.8105179 29.543034,1.593045 c 6.493731,-2.17028968 679.108366,-2.17028968 685.602096,0 6.63491,2.2174729 11.4161,7.2905529 13.07314,13.871244 0.8312,3.301022 1.45916,18.103066 1.45916,34.395112 0,24.849704 -0.27658,28.706387 -2.10906,29.409573 -2.52388,0.968503 -708.4895,0.895291 -710.890967,-0.07372 z M 72.403214,60.083893 c 2.599196,-0.722075 6.799196,-3.452054 9.333334,-6.06662 4.274924,-4.410602 4.607524,-5.36697 4.607524,-13.248595 0,-6.524212 -0.645971,-9.36811 -2.784606,-12.259279 -5.999595,-8.110704 -19.77243,-10.926812 -28.227582,-5.771643 -17.018653,10.376399 -9.746588,37.475218 10.34552,38.55183 1.1,0.05895 4.126615,-0.48362 6.72581,-1.205693 z M 692.2617,57.540449 c 12.24717,-8.640551 12.28931,-26.130301 0.0831,-34.462157 -6.07665,-4.147851 -16.57308,-4.135617 -22.80351,0.02657 -11.11821,7.427453 -12.16116,23.537843 -2.12278,32.790672 6.14724,5.666192 18.02841,6.452861 24.84322,1.644907 z M 191.67741,50.078293 c 0,-2.600518 -1.00664,-2.67543 -40.58008,-3.019919 -24.29133,-0.211457 -41.0873,0.153965 -41.84372,0.910377 -0.69499,0.694995 -0.89945,2.212652 -0.45435,3.372571 0.7178,1.870563 5.44751,2.069081 41.84372,1.756289 40.02799,-0.344002 41.03443,-0.418056 41.03443,-3.019318 z m 73.95153,-17.274927 c 0.88626,-1.067876 1.22431,-2.567876 0.75123,-3.333334 -1.19936,-1.940604 -156.20617,-1.940604 -157.40553,0 -0.47308,0.765458 -0.13502,2.265458 0.75124,3.333334 2.42176,2.918044 153.48129,2.918044 155.90306,0 z"
         id="path1091" />
      <path
         style="fill:#9aa5af;stroke-width:1.33333"
         d="m 554.34409,460.0783 c 1.0531,-1.70397 12.69662,-1.70397 15.33333,0 1.39972,0.90456 -0.72491,1.29863 -7.07869,1.31292 -5.71767,0.0133 -8.77362,-0.4732 -8.25464,-1.31292 z M 39.010737,415.70908 c 0,-0.9364 -2.4,-4.89665 -5.333334,-8.80054 -8.325075,-11.07964 -6.972876,-20.24516 3.578635,-24.25684 5.016768,-1.90738 11.99589,0.73624 14.444555,5.47144 3.17907,6.14764 2.38311,10.68101 -3.3597,19.13512 -2.931587,4.31564 -5.330156,8.36564 -5.330156,9 0,0.63436 -0.9,1.15337 -2,1.15337 -1.1,0 -2,-0.76615 -2,-1.70255 z m 5.906759,-17.23561 c 4.205358,-6.004 -4.235284,-11.92543 -9.191878,-6.44845 -2.049059,2.26418 -2.212237,3.2994 -0.955019,6.05869 1.939362,4.25644 7.294493,4.46213 10.146897,0.38976 z m -1.949224,-37.8402 c -0.753944,-1.98303 -3.211275,-5.92927 -5.460738,-8.76945 -5.762437,-7.27567 -6.452519,-14.04896 -1.973649,-19.3718 1.907944,-2.26747 5.063004,-4.52274 7.011243,-5.01171 7.643738,-1.91845 15.132276,4.83557 15.132276,13.64805 0,2.36048 -2.062695,6.72968 -5.333333,11.29707 -2.933334,4.09636 -5.333334,8.05861 -5.333334,8.80504 0,3.13967 -2.777727,2.72932 -4.042465,-0.5972 z m 6.442465,-14.15497 c 2.056668,-2.05667 2.056668,-6.74334 0,-8.8 -4.844415,-4.84442 -12.439923,1.43034 -9.15693,7.56468 1.667854,3.11641 6.609221,3.78302 9.15693,1.23532 z M 549.67742,334.64248 c 0,-0.78969 -2.4,-4.78736 -5.33333,-8.88372 -7.6678,-10.70794 -6.84876,-19.39209 2.2355,-23.70285 8.73988,-4.14735 17.7645,2.15497 17.7645,12.40579 0,2.36048 -2.0627,6.72968 -5.33334,11.29706 -2.93333,4.09636 -5.33333,8.09403 -5.33333,8.88372 0,0.7897 -0.9,1.43582 -2,1.43582 -1.1,0 -2,-0.64612 -2,-1.43582 z m 6.4,-14.83085 c 0.88,-0.88 1.6,-3.16 1.6,-5.06667 0,-4.40634 -2.26032,-6.66666 -6.66667,-6.66666 -4.40634,0 -6.66666,2.26032 -6.66666,6.66666 0,4.40635 2.26032,6.66667 6.66666,6.66667 1.90667,0 4.18667,-0.72 5.06667,-1.6 z m 33.6,-6.50248 c 0,-0.78969 -2.4,-4.78736 -5.33333,-8.88372 -7.6678,-10.70795 -6.84876,-19.39209 2.2355,-23.70285 8.73988,-4.14735 17.7645,2.15497 17.7645,12.40578 0,2.36048 -2.06269,6.72968 -5.33333,11.29707 -2.93334,4.09636 -5.33334,8.09403 -5.33334,8.88372 0,0.78969 -0.9,1.43581 -2,1.43581 -1.1,0 -2,-0.64612 -2,-1.43581 z m 6.4,-14.83085 c 2.49591,-2.49591 1.88308,-8.39719 -1.15779,-11.14914 -2.51681,-2.27768 -3.0702,-2.32118 -6.33333,-0.49792 -4.24735,2.3732 -5.36184,7.93695 -2.21936,11.07943 2.54975,2.54975 7.44236,2.83575 9.71048,0.56763 z M 64.433628,277.15852 c -0.68133,-1.69412 -3.380206,-6.03584 -5.997503,-9.64825 -7.080104,-9.77203 -5.990009,-18.61176 2.810125,-22.78769 8.739869,-4.14735 17.764488,2.15497 17.764488,12.40578 0,2.36048 -2.062695,6.72968 -5.333333,11.29707 -2.933334,4.09636 -5.333334,8.05861 -5.333334,8.80504 0,2.90044 -2.735269,2.85013 -3.910443,-0.072 z m 5.243776,-17.08022 c 3.335807,-3.33582 3.341015,-4.65899 0.03136,-7.96864 -1.933661,-1.93366 -3.41271,-2.34772 -5.555173,-1.55518 -4.434676,1.6405 -5.641775,6.35823 -2.444827,9.55518 3.309655,3.30965 4.632834,3.30445 7.96864,-0.0314 z M 360.2186,231.08159 c -0.76605,-2.01487 -3.67599,-6.66487 -6.46652,-10.33333 -6.67467,-8.77459 -8.07467,-11.66115 -8.07467,-16.64853 0,-12.83244 13.97747,-21.22712 25.45851,-15.29004 7.66957,3.9661 11.48332,15.02794 7.70768,22.35626 -0.82525,1.60178 -3.78364,5.91383 -6.57419,9.58231 -2.79053,3.66846 -5.70046,8.31846 -6.46652,10.33333 -0.76604,2.01485 -2.0225,3.66337 -2.79214,3.66337 -0.76964,0 -2.02611,-1.64852 -2.79215,-3.66337 z m 292.39282,-19.07846 c -0.73609,-1.87466 -2.88049,-5.24122 -4.76534,-7.48125 -7.11172,-8.4518 -7.57743,-16.75976 -1.2198,-21.76067 6.87146,-5.4051 17.87096,-1.75822 19.69104,6.52855 0.90609,4.12541 -1.23004,9.86083 -6.3171,16.96109 -1.6442,2.29491 -3.67818,5.29491 -4.51996,6.66667 -1.43901,2.34504 -1.61048,2.29039 -2.86884,-0.91439 z m 6.62768,-14.13149 c 4.84154,-4.38152 2.27826,-11.12668 -4.22834,-11.12668 -6.40304,0 -8.86879,6.02337 -4.46002,10.89501 2.73811,3.02559 5.51919,3.09974 8.68836,0.23167 z m -204.22835,-3.22916 c 0,-0.78969 -2.4,-4.78736 -5.33333,-8.88372 -7.6678,-10.70795 -6.84876,-19.39209 2.2355,-23.70285 8.73988,-4.14735 17.7645,2.15497 17.7645,12.40578 0,2.36048 -2.0627,6.72968 -5.33334,11.29707 -2.93333,4.09636 -5.33333,8.09403 -5.33333,8.88372 0,0.78969 -0.9,1.43581 -2,1.43581 -1.1,0 -2,-0.64612 -2,-1.43581 z M 462.0726,178.618 c 2.14535,-3.42876 0.008,-9.05424 -3.80254,-10.01076 -3.87719,-0.97312 -8.59264,2.45627 -8.59264,6.24913 0,5.8524 9.31774,8.6801 12.39518,3.76163 z M 212.5723,168.07829 c -0.7576,-1.83333 -3.51888,-6.28894 -6.13617,-9.90136 -7.08011,-9.77202 -5.99001,-18.61176 2.81012,-22.78769 8.69283,-4.12502 17.76995,2.15568 17.76132,12.28951 -10e-4,2.08616 -2.20748,7.04053 -5,11.23086 -2.74825,4.12388 -5.68555,8.62388 -6.52732,10 -1.44553,2.36315 -1.60693,2.317 -2.90795,-0.83132 z m 5.682,-15.9008 c 2.83355,-3.13104 2.33971,-6.50644 -1.3054,-8.92225 -2.325,-1.54092 -3.16301,-1.504 -5.66666,0.24963 -3.52606,2.46974 -3.86139,7.90318 -0.60483,9.79996 3.40352,1.98237 4.97413,1.74868 7.57689,-1.12734 z M 16.586963,78.923292 C 15.194589,78.040398 14.917821,71.33302 15.253629,46.610375 15.741325,10.705548 16.342617,8.4753427 26.990427,3.0782919 L 32.90911,0.07829189 h 339.43497 339.43497 l 5.91868,3.00000001 c 10.64782,5.3970508 11.24911,7.6272561 11.7368,43.5320831 0.33582,24.722645 0.0591,31.430023 -1.33333,32.312917 -2.29737,1.456746 -709.216862,1.456746 -711.514237,0 z M 74.074394,59.610234 c 5.834361,-2.437752 12.610712,-10.440281 13.683692,-16.159751 0.660583,-3.521211 0.09736,-6.259987 -2.267568,-11.026581 -7.441539,-14.998641 -24.658147,-17.513374 -35.484358,-5.183 -7.4372,8.470504 -6.664152,19.751525 1.895369,27.658928 7.423583,6.858008 13.793965,8.211331 22.172865,4.710404 z M 691.19297,58.482339 c 3.6836,-2.070293 6.20653,-4.962102 8.60358,-9.861474 2.98592,-6.103001 3.22096,-7.565879 1.96505,-12.229985 -1.8632,-6.919388 -5.78784,-11.767102 -12.1571,-15.016454 -6.50456,-3.318381 -10.68293,-3.318381 -17.18749,0 -9.63652,4.916184 -14.6426,14.667302 -12.12465,23.617081 3.88821,13.820294 18.7611,20.313616 30.90061,13.490832 z M 189.76506,53.364714 c 3.11134,-1.665137 3.39784,-6.020236 0.46996,-7.143769 -2.75261,-1.056276 -77.02929,-1.056276 -79.7819,0 -2.82029,1.082248 -2.6839,5.390018 0.22429,7.083882 3.18223,1.85348 75.63378,1.908342 79.08765,0.05988 z m 75.20748,-19.093611 c 1.51316,-1.106445 2.1452,-2.65746 1.63002,-4 -0.76759,-2.000317 -7.69596,-2.192811 -78.92515,-2.192811 -71.2292,0 -78.15756,0.192494 -78.92516,2.192811 -2.16278,5.636124 0.16216,5.807189 78.92516,5.807189 60.85741,0 75.28497,-0.337321 77.29513,-1.807189 z"
         id="path1089" />
      <path
         style="fill:#768c99;stroke-width:1.33333"
         d="m 555.01075,460.0783 c 1.1,-0.71088 4.4,-1.29249 7.33334,-1.29249 2.93333,0 6.23333,0.58161 7.33333,1.29249 1.39548,0.90183 -0.82112,1.29249 -7.33333,1.29249 -6.51222,0 -8.72882,-0.39066 -7.33334,-1.29249 z M 40.34407,415.20799 c 0,-0.72311 -2.4,-4.53147 -5.333333,-8.46303 -6.405778,-8.58568 -7.160357,-15.15209 -2.269234,-19.74706 5.060482,-4.75408 10.421135,-5.07488 15.359879,-0.9192 6.155302,5.17934 5.833155,10.98218 -1.183094,21.31109 -6.250447,9.20153 -6.574218,9.58657 -6.574218,7.8182 z m 4.087655,-13.84327 c 3.175224,-1.69933 3.457012,-8.21794 0.483773,-11.19118 -2.853618,-2.85363 -6.70172,-2.63162 -9.904761,0.57142 -3.209232,3.20923 -3.334226,5.12024 -0.591062,9.03666 2.240876,3.1993 5.908544,3.77922 10.01205,1.5831 z m -0.08765,-40.8234 c 0,-0.7231 -2.4,-4.53146 -5.333333,-8.46302 -6.712546,-8.99684 -7.101151,-14.43731 -1.435898,-20.10256 4.833654,-4.83366 9.291067,-4.96907 14.666932,-0.44559 6.004249,5.05225 5.636097,10.94749 -1.323483,21.19297 -6.250447,9.20154 -6.574218,9.58658 -6.574218,7.8182 z m 5.904762,-13.22493 c 1.152381,-1.15237 2.095239,-3.50952 2.095239,-5.23809 0,-7.4952 -9.517107,-9.76691 -13.211961,-3.15364 -1.757939,3.14645 -1.724339,3.87686 0.322015,7 2.61004,3.98342 7.564279,4.62216 10.794707,1.39173 z M 546.01075,326.15656 c -6.97504,-10.23698 -7.39782,-15.21889 -1.76922,-20.84749 4.83365,-4.83365 9.29106,-4.96907 14.66692,-0.44559 6.00425,5.05226 5.6361,10.9475 -1.32348,21.19298 -2.98068,4.38798 -5.52926,8.07686 -5.66348,8.19749 -0.13424,0.12067 -2.79407,-3.52319 -5.91074,-8.09739 z m 10.56168,-5.61825 c 3.03602,-2.74756 3.14594,-8.1348 0.23167,-11.35503 -4.57849,-5.05918 -13.79335,-1.49838 -13.79335,5.33002 0,7.132 8.2758,10.80868 13.56168,6.02501 z m 29.43832,-15.71508 c -6.97504,-10.23699 -7.39782,-15.21889 -1.76922,-20.84749 4.83365,-4.83366 9.29106,-4.96907 14.66692,-0.44559 6.00425,5.05225 5.63611,10.94749 -1.32348,21.19297 -2.98068,4.38799 -5.52926,8.07687 -5.66348,8.1975 -0.13424,0.12066 -2.79407,-3.52319 -5.91074,-8.09739 z m 10.56168,-5.61825 c 4.65721,-4.21471 1.25578,-15.12668 -4.7152,-15.12668 -3.18556,0 -8.84648,5.41793 -8.84648,8.46676 0,7.52057 8.17472,11.53505 13.56168,6.65992 z M 60.677404,268.82323 c -6.975039,-10.23699 -7.397831,-15.21889 -1.769231,-20.84749 4.833654,-4.83366 9.291067,-4.96907 14.666932,-0.44559 6.004249,5.05225 5.636097,10.94749 -1.323483,21.19297 -2.980684,4.38799 -5.529254,8.07687 -5.663488,8.1975 -0.134235,0.12064 -2.794063,-3.52319 -5.91073,-8.09739 z m 10.333334,-7.4116 c 1.466667,-1.46667 2.666667,-3.59393 2.666667,-4.72727 0,-2.35365 -5.812109,-8.60606 -8.000001,-8.60606 -1.888066,0 -8,6.11193 -8,8 0,2.18789 6.252419,8 8.60606,8 1.133334,0 3.260607,-1.2 4.727274,-2.66667 z M 360.64517,231.0783 c -0.71121,-2.01667 -3.78718,-6.96667 -6.83549,-11 -7.72977,-10.22758 -9.18993,-15.63613 -5.97096,-22.11706 7.00667,-14.10691 23.33739,-14.10691 30.34405,0 3.21898,6.48093 1.75882,11.88948 -5.97096,22.11706 -3.0483,4.03333 -6.12428,8.98333 -6.83549,11 -0.71121,2.01666 -1.77572,3.66666 -2.36557,3.66666 -0.58986,0 -1.65436,-1.65 -2.36558,-3.66666 z m 90.69891,-44.92174 c -6.97504,-10.23699 -7.39782,-15.21889 -1.76922,-20.84749 4.83365,-4.83366 9.29106,-4.96907 14.66692,-0.44559 6.00425,5.05225 5.6361,10.94749 -1.32348,21.19297 -2.98068,4.38799 -5.52926,8.07687 -5.66348,8.1975 -0.13424,0.12066 -2.79407,-3.52319 -5.91074,-8.09739 z m 10.56168,-5.61825 c 4.97567,-4.50292 1.3122,-13.79335 -5.43909,-13.79335 -2.67743,0 -8.12259,5.31989 -8.12259,7.93575 0,6.78377 8.48747,10.4497 13.56168,5.8576 z M 208.60284,159.49963 c -6.8585,-10.43176 -7.25387,-15.29802 -1.69466,-20.85723 4.83366,-4.83365 9.29107,-4.96907 14.66692,-0.44559 6.00426,5.05226 5.63611,10.9475 -1.32348,21.19298 -2.98068,4.38798 -5.5628,8.12154 -5.73805,8.29678 -0.17525,0.17526 -2.83508,-3.50888 -5.91073,-8.18694 z m 10.4079,-6.088 c 5.10482,-5.10482 2.01252,-12 -5.38165,-12 -6.56532,0 -9.11099,8.76954 -3.655,12.59106 3.91641,2.74316 5.82743,2.61816 9.03665,-0.59106 z M 15.06926,49.744959 C 15.14266,13.375019 16.453955,8.8145655 28.624286,2.603079 33.440094,0.14518961 42.547424,0.07829189 372.34408,0.07829189 c 329.79665,0 338.90399,0.06689772 343.7198,2.52478711 12.17033,6.2114865 13.48163,10.77194 13.55503,47.14188 l 0.0585,29.000001 H 372.34408 15.010736 Z m 61.449323,9.553972 C 81.597302,56.705129 86.774142,50.028686 87.753185,44.809943 91.936469,22.511122 62.77212,9.2510064 49.066318,27.220238 35.088698,45.545842 55.879072,69.839941 76.518583,59.298931 Z M 692.48025,58.400865 c 4.99005,-3.316155 10.53051,-12.956274 10.53051,-18.322573 0,-6.087862 -5.56728,-15.080285 -11.33334,-18.30591 -19.64961,-10.992318 -41.43766,12.370693 -28.49186,30.551401 6.63489,9.31785 20.18749,12.129288 29.29469,6.077082 z M 191.7559,52.823051 c 2.0723,-1.538833 2.29346,-2.402553 1.10952,-4.333333 -1.37481,-2.242095 -4.36067,-2.411425 -42.52135,-2.411425 -38.16068,0 -41.14653,0.16933 -42.52135,2.411425 -1.18392,1.93078 -0.96277,2.7945 1.10953,4.333333 3.82265,2.8386 79.001,2.8386 82.82365,0 z m 73.86835,-18.680707 c 0.88368,-1.06477 1.39893,-3.01477 1.145,-4.333333 -0.43819,-2.275304 -4.46575,-2.397385 -79.09184,-2.397385 -74.62609,0 -78.65366,0.122081 -79.09185,2.397385 -1.22419,6.356729 -2.32741,6.269281 79.09185,6.269281 65.10875,0 76.57653,-0.284822 77.94684,-1.935948 z"
         id="path1087" />
      <path
         style="fill:#6a7183;stroke-width:1.33333"
         d="m 360.64517,231.0783 c -0.71121,-2.01667 -3.78718,-6.96667 -6.83549,-11 -7.72977,-10.22758 -9.18993,-15.63613 -5.97096,-22.11706 7.00667,-14.10691 23.33739,-14.10691 30.34405,0 3.21898,6.48093 1.75882,11.88948 -5.97096,22.11706 -3.0483,4.03333 -6.12428,8.98333 -6.83549,11 -0.71121,2.01666 -1.77572,3.66666 -2.36557,3.66666 -0.58986,0 -1.65436,-1.65 -2.36558,-3.66666 z M 15.255413,47.744959 c 0.404488,-29.714304 0.549847,-31.203935 3.50482,-35.91717 1.695557,-2.7044435 5.179853,-6.1544436 7.74288,-7.6666669 l 4.66005,-2.7494969 H 372.34408 713.525 l 4.66005,2.7494969 c 2.56303,1.5122233 6.04732,4.9622234 7.74288,7.6666669 2.95498,4.713235 3.10034,6.202866 3.50482,35.91717 l 0.422,31.000001 H 372.34408 14.833422 Z m 57.135293,13.67572 c 2.592316,-0.720174 7.040992,-3.693178 9.885946,-6.606676 4.444468,-4.551548 5.257422,-6.319593 5.774878,-12.559436 0.480832,-5.798199 0.0017,-8.330564 -2.376458,-12.562041 -7.578209,-13.483603 -28.198727,-14.895061 -37.4511,-2.563498 -2.648952,3.530523 -3.213235,5.8501 -3.213235,13.208542 0,8.379261 0.285817,9.225923 4.666667,13.823821 7.520227,7.892815 13.524883,9.811935 22.713302,7.259288 z M 692.89421,58.999683 c 6.55678,-3.829362 10.32467,-11.569406 9.72476,-19.976685 -1.17506,-16.467574 -18.42584,-25.609449 -32.93616,-17.454191 -14.97041,8.413841 -13.86645,31.355114 1.86271,38.708595 6.40394,2.993884 14.90596,2.485039 21.34869,-1.277719 z M 192.29092,52.809011 c 0.88368,-1.06477 1.39893,-3.01477 1.145,-4.333333 -0.43292,-2.248009 -3.11788,-2.397385 -43.09185,-2.397385 -39.97396,0 -42.65891,0.149376 -43.09184,2.397385 -1.16574,6.053212 0.31941,6.269281 43.09184,6.269281 33.63812,0 40.60709,-0.321634 41.94685,-1.935948 z m 74.66672,-18.666735 c 0.88372,-1.064809 1.21674,-3.164809 0.74008,-4.666666 -0.86063,-2.711582 -1.41946,-2.730651 -80.02031,-2.730651 -78.60086,0 -79.15969,0.01907 -80.02031,2.730651 -2.12909,6.708165 -3.40748,6.602682 80.02031,6.602682 66.27559,0 77.90925,-0.284093 79.28023,-1.936016 z"
         id="path1085" />
      <path
         style="fill:#db3f35;stroke-width:1.33333"
         d="m 360.64517,231.0783 c -0.71121,-2.01667 -3.78718,-6.96667 -6.83549,-11 -7.72977,-10.22758 -9.18993,-15.63613 -5.97096,-22.11706 7.00667,-14.10691 23.33739,-14.10691 30.34405,0 3.21898,6.48093 1.75882,11.88948 -5.97096,22.11706 -3.0483,4.03333 -6.12428,8.98333 -6.83549,11 -0.71121,2.01666 -1.77572,3.66666 -2.36557,3.66666 -0.58986,0 -1.65436,-1.65 -2.36558,-3.66666 z M 15.238756,48.078293 15.677403,18.078292 19.39288,12.360801 c 2.043512,-3.1446202 5.193512,-6.3909293 7,-7.2140202 1.806488,-0.8230909 3.284523,-2.0002199 3.284523,-2.6158422 0,-0.6156224 154.200007,-1.1193134 342.666677,-1.1193134 188.46667,0 342.66668,0.503691 342.66668,1.1193134 0,0.6156223 1.47804,1.7927513 3.28452,2.6158422 1.80649,0.8230909 4.95649,4.0694 7,7.2140202 l 3.71548,5.717491 0.43864,30.000001 0.43865,30 H 372.34408 14.80011 Z M 76.479479,60.652486 C 81.855045,57.907466 88.117494,49.975283 89.117489,44.644853 90.910558,35.086972 85.517665,24.75831 76.271154,20.041092 66.413515,15.0121 55.430061,17.705221 47.977258,26.978699 33.359249,45.167801 55.523488,71.353616 76.479479,60.652486 Z m 614.438661,0.140363 c 9.29223,-4.805196 15.01194,-16.829828 12.30423,-25.867358 -4.29184,-14.324907 -19.36728,-21.401544 -31.9314,-14.989079 -16.98529,8.668944 -17.58784,30.212338 -1.12577,40.250415 5.05352,3.081482 15.38265,3.38311 20.75294,0.606022 z M 192.0474,54.002687 c 3.5373,-2.477618 3.71332,-4.219037 0.75669,-7.486073 -2.0452,-2.259917 -5.16,-2.438321 -42.57143,-2.438321 -34.91748,0 -40.64753,0.282756 -42.46002,2.095238 -2.89689,2.896898 -2.62098,5.385306 0.86811,7.829156 4.42867,3.101964 78.97798,3.101964 83.40665,0 z M 265.76506,36.03138 c 3.19636,-1.710636 3.52815,-8.636898 0.46996,-9.810436 -2.75532,-1.057316 -154.35991,-1.057316 -157.11523,0 -2.89406,1.110552 -2.73496,8.026947 0.22428,9.75055 3.2392,1.886658 152.90058,1.943957 156.42099,0.05988 z"
         id="path1083" />
      <path
         style="fill:#4f566a;stroke-width:1.33333"
         d="m 15.238756,48.078293 0.438647,-30.000001 3.715477,-5.717491 c 2.043512,-3.1446202 5.193512,-6.3909293 7,-7.2140202 1.806488,-0.8230909 3.284523,-2.0002199 3.284523,-2.6158422 0,-0.6156224 154.200007,-1.1193134 342.666677,-1.1193134 188.46667,0 342.66668,0.503691 342.66668,1.1193134 0,0.6156223 1.47804,1.7927513 3.28452,2.6158422 1.80649,0.8230909 4.95649,4.0694 7,7.2140202 l 3.71548,5.717491 0.43864,30.000001 0.43865,30 H 372.34408 14.80011 Z M 76.479479,60.652486 C 81.855045,57.907466 88.117494,49.975283 89.117489,44.644853 90.910558,35.086972 85.517665,24.75831 76.271154,20.041092 66.413515,15.0121 55.430061,17.705221 47.977258,26.978699 33.359249,45.167801 55.523488,71.353616 76.479479,60.652486 Z m 614.438661,0.140363 c 9.29223,-4.805196 15.01194,-16.829828 12.30423,-25.867358 -4.29184,-14.324907 -19.36728,-21.401544 -31.9314,-14.989079 -16.98529,8.668944 -17.58784,30.212338 -1.12577,40.250415 5.05352,3.081482 15.38265,3.38311 20.75294,0.606022 z M 192.0474,54.002687 c 3.5373,-2.477618 3.71332,-4.219037 0.75669,-7.486073 -2.0452,-2.259917 -5.16,-2.438321 -42.57143,-2.438321 -34.91748,0 -40.64753,0.282756 -42.46002,2.095238 -2.89689,2.896898 -2.62098,5.385306 0.86811,7.829156 4.42867,3.101964 78.97798,3.101964 83.40665,0 z M 265.76506,36.03138 c 3.19636,-1.710636 3.52815,-8.636898 0.46996,-9.810436 -2.75532,-1.057316 -154.35991,-1.057316 -157.11523,0 -2.89406,1.110552 -2.73496,8.026947 0.22428,9.75055 3.2392,1.886658 152.90058,1.943957 156.42099,0.05988 z"
         id="path1081" />
      <path
         style="fill:#3c445b;stroke-width:1.33333"
         d="m 15.010736,53.264387 c 0,-26.020957 0.904985,-37.608207 2.843689,-36.410023 0.635971,0.393052 1.156311,-0.280771 1.156311,-1.497383 0,-1.953842 4.898408,-7.3663187 11.112478,-12.2786891 3.097473,-2.44862727 681.344266,-2.44862727 684.441736,0 6.21406,4.9123704 11.11248,10.3248471 11.11248,12.2786891 0,1.216612 0.51821,1.891747 1.1516,1.500298 1.85756,-1.148038 2.82441,11.537715 2.83681,37.221014 l 0.012,24 H 372.34449 15.011149 V 53.264387 Z m 59.691297,8.750268 c 13.873555,-5.79674 19.1465,-20.494223 11.926261,-33.24252 -7.853788,-13.866912 -29.305449,-15.458184 -38.895309,-2.885231 -9.173116,12.026575 -4.692235,29.364542 9.222592,35.68517 6.627606,3.010504 11.320447,3.127539 17.746456,0.442581 z m 614.636087,0.0128 c 6.33373,-2.646402 9.36261,-5.452382 12.48119,-11.562698 C 712.13677,30.249462 689.0553,9.1235364 669.03793,20.46075 c -16.05821,9.094877 -14.59301,33.311423 2.48471,41.066735 6.71757,3.050574 11.39674,3.181889 17.81548,0.49997 z M 192.43173,54.698047 c 2.88283,-1.54284 3.42851,-6.570261 0.97901,-9.019754 -1.17713,-1.177132 -12.76829,-1.6 -43.85735,-1.6 -37.30319,0 -42.35223,0.24726 -43.06667,2.109049 -1.44958,3.777567 -0.8569,7.064061 1.52402,8.450819 3.18973,1.857849 80.95839,1.913016 84.42099,0.05988 z m 75.19705,-19.899361 c 1.60899,-1.777908 2.09302,-3.695363 1.51459,-6 l -0.85009,-3.38706 h -80.61587 -80.61587 l -0.85009,3.38706 c -0.57843,2.304637 -0.0944,4.222092 1.51458,6 2.29686,2.538004 4.58977,2.61294 79.95138,2.61294 75.36161,0 77.65452,-0.07493 79.95137,-2.61294 z"
         id="path1079" />
      <path
         style="fill:#2e374e;stroke-width:1.33333"
         d="m 15.022325,54.411626 c 0.01274,-26.741594 1.147774,-41.35166 2.770897,-35.666667 0.942561,3.301323 0.952977,3.296615 1.084607,-0.490196 0.08872,-2.552387 1.85384,-5.544462 5.309378,-9.0000004 l 5.176471,-5.1764707 h 342.980402 342.9804 l 5.17648,5.1764707 c 3.45553,3.4555384 5.22065,6.4476134 5.30937,9.0000004 0.1316,3.786811 0.14204,3.791519 1.08462,0.490196 1.62312,-5.684993 2.75816,8.925073 2.77089,35.666667 0.007,15.34106 -0.48115,24.333334 -1.32175,24.333334 -0.73333,0 -1.33333,-0.6 -1.33333,-1.333334 0,-0.885546 -119.11111,-1.333333 -354.66668,-1.333333 -235.55556,0 -354.666677,0.447787 -354.666677,1.333333 0,0.733334 -0.6,1.333334 -1.333334,1.333334 -0.840606,0 -1.32905,-8.992274 -1.321744,-24.333334 z m 58.782814,8.954932 C 81.040889,60.813638 85.3252,56.936962 88.490681,50.078293 91.509805,43.536734 91.657904,37.541527 88.959888,31.084266 86.313485,24.750534 83.507505,21.721659 77.397189,18.603079 68.323728,13.972172 54.693701,16.317965 48.061588,23.651878 36.521299,36.413339 42.10367,57.602485 58.550989,63.466761 c 6.641829,2.368137 8.288795,2.357319 15.25415,-0.1002 z M 692.25148,62.126182 c 8.70799,-4.503073 14.37423,-15.582371 12.84861,-25.12309 -2.71581,-16.983738 -21.3322,-26.2184 -36.04991,-17.882563 -16.26088,9.209862 -16.68652,31.2272 -0.81052,41.926034 5.37123,3.619671 18.00172,4.187563 24.01182,1.079619 z M 193.67741,54.744959 c 3.24447,-3.244462 3.39249,-6.321329 0.46001,-9.561678 -2.04741,-2.262367 -5.19092,-2.438322 -43.56168,-2.438322 -36.61019,0 -41.63478,0.253179 -43.79335,2.206651 -3.17705,2.875191 -3.09319,6.471813 0.22835,9.793349 2.55009,2.550091 4.44444,2.666667 43.33333,2.666667 38.8889,0 40.78325,-0.116573 43.33334,-2.666667 z m 74.42528,-18.727944 c 2.22167,-2.069808 2.71532,-3.597773 2.04612,-6.333333 -0.48509,-1.982964 -1.53961,-4.046202 -2.34336,-4.584972 -1.90979,-1.280163 -158.3463,-1.280163 -160.25608,0 -0.80376,0.53877 -1.85827,2.602008 -2.34336,4.584972 -0.6692,2.73556 -0.17556,4.263525 2.04612,6.333333 2.8804,2.683496 4.19083,2.727944 80.42528,2.727944 76.23444,0 77.54488,-0.04445 80.42528,-2.727944 z M 201.34408,1.7450031 c 94.05,-0.1889124 247.95,-0.1889124 342.00001,0 94.05,0.1889124 17.1,0.3434771 -171.00001,0.3434771 -188.10001,0 -265.05001,-0.1545647 -171,-0.3434771 z"
         id="path1077" />
    </g>
    <g
       id="g574"
       transform="translate(2.05947,1.7518372)"
       style="opacity:0.47748626">
      <path
         style="fill:#f6f7f8;stroke-width:1.33333"
         d="M 0,270 V 78.666668 H 357.33608 714.67216 L 714.65749,270 l -0.0147,191.33334 -78.98812,-0.0424 c -67.34091,-0.0361 -79.36976,-0.33107 -81.5763,-2 -3.32265,-2.51313 -10.16766,-2.51313 -13.49032,0 -2.25538,1.70588 -37.17608,1.96304 -271.58818,2 L 0,461.33334 Z m 28.000001,146.69011 c 0,-1.00054 2.133521,-4.61425 4.741157,-8.03044 2.607636,-3.41618 5.292689,-7.66188 5.966782,-9.43488 3.048811,-8.01898 -3.963406,-17.89145 -12.707939,-17.89145 -5.637388,0 -12.037533,5.18765 -13.128226,10.64113 -0.978505,4.89252 0.71624,9.69502 5.367771,15.21095 1.92384,2.28136 4.325125,6.12211 5.336191,8.535 1.760497,4.20141 4.424264,4.78524 4.424264,0.96969 z m -6.605759,-17.28338 c -0.87942,-1.05963 -1.402887,-3.30963 -1.16326,-5 0.360152,-2.54056 1.244727,-3.07339 5.102352,-3.07339 3.934892,0 4.738792,0.51099 5.126627,3.25863 0.751608,5.32485 -5.768512,8.78765 -9.065719,4.81476 z m 10.605759,-37.38328 c 0,-1.00055 2.133521,-4.61426 4.741158,-8.03044 2.607636,-3.41619 5.292688,-7.66188 5.966781,-9.43489 4.316984,-11.35453 -9.980371,-22.65497 -19.885442,-15.7172 -7.507661,5.25858 -7.801006,15.11752 -0.700361,23.5383 1.988414,2.35811 4.442535,6.26164 5.4536,8.67453 1.760497,4.20142 4.424264,4.78524 4.424264,0.9697 z M 26.933334,346.40001 C 23.673593,343.14026 25.89675,336 30.171429,336 c 2.192212,0 5.828572,3.74331 5.828572,6 0,2.2567 -3.63636,6.00001 -5.828572,6.00001 -0.900952,0 -2.358095,-0.72 -3.238095,-1.6 z M 538.66668,335.35678 c 0,-1.00055 2.13352,-4.61426 4.74116,-8.03044 2.60764,-3.41619 5.29268,-7.66188 5.96678,-9.43488 4.47136,-11.76055 -10.57502,-22.95712 -20.4316,-15.20394 -7.34922,5.78088 -7.36303,14.47687 -0.0368,23.16456 1.92384,2.28136 4.32512,6.12211 5.33618,8.535 1.7605,4.20142 4.42427,4.78524 4.42427,0.9697 z M 531.42859,319.2381 C 527.38498,315.19448 530.31154,308 536.00002,308 c 3.18138,0 6.66666,3.48528 6.66666,6.66667 0,3.18139 -3.48528,6.66667 -6.66666,6.66667 -1.36191,0 -3.41906,-0.94286 -4.57143,-2.09524 z m 47.2381,-5.21466 c 0,-1.00054 2.13352,-4.61425 4.74116,-8.03044 2.60764,-3.41618 5.29268,-7.66188 5.96677,-9.43488 4.47136,-11.76054 -10.57501,-22.95712 -20.4316,-15.20393 -7.34921,5.78088 -7.36303,14.47687 -0.0368,23.16456 1.92384,2.28136 4.32512,6.12211 5.33619,8.535 1.76049,4.20141 4.42426,4.78524 4.42426,0.96969 z m -7.12668,-16.46176 c -2.86807,-3.16917 -2.79392,-5.95025 0.23166,-8.68836 6.55622,-5.93329 15.04858,2.78266 8.79978,9.03144 -2.78388,2.78388 -6.32327,2.64943 -9.03144,-0.34308 z M 53.333335,278.02344 c 0,-1.00054 2.133521,-4.61425 4.741158,-8.03044 2.607636,-3.41618 5.292688,-7.66188 5.966781,-9.43488 4.47135,-11.76054 -10.575026,-22.95712 -20.431606,-15.20393 -7.349211,5.78088 -7.363021,14.47687 -0.03679,23.16456 1.92384,2.28136 4.325126,6.12211 5.336191,8.535 1.760496,4.20141 4.424263,4.78524 4.424263,0.96969 z M 46.775772,259.4648 c -2.123484,-2.55864 -1.432691,-6.09861 1.557563,-7.98173 3.420283,-2.15393 7,0.57121 7,5.32892 0,3.15347 -0.627129,3.92757 -3.447461,4.25543 -1.896104,0.2204 -4.19565,-0.50078 -5.110102,-1.60262 z M 350.54337,231.78059 c 0.80899,-2.32067 3.79247,-7.27067 6.62996,-11 2.83748,-3.72932 5.83428,-8.09115 6.65954,-9.69293 3.77564,-7.32832 -0.0381,-18.39016 -7.70769,-22.35626 -11.48104,-5.93708 -25.4585,2.4576 -25.4585,15.29004 0,5.00086 1.3976,7.87127 8.16001,16.75915 2.83749,3.72933 5.82097,8.67933 6.62996,11 0.80899,2.32068 1.95351,4.21941 2.54336,4.21941 0.58985,0 1.73437,-1.89873 2.54336,-4.21941 z m 290.78998,-17.64223 c 0,-0.93733 2.3052,-4.95192 5.12268,-8.9213 6.27906,-8.84622 7.25804,-12.3915 4.94828,-17.91955 -3.8566,-9.23015 -14.03226,-11.54133 -20.84018,-4.7334 -5.68026,5.68024 -5.4356,12.98324 0.71568,21.36295 2.53721,3.45637 5.23609,7.92286 5.99749,9.92553 1.34407,3.53516 4.05605,3.72624 4.05605,0.28577 z m -5.06666,-17.07169 c -4.52572,-4.52572 0.7965,-12.06556 6.4,-9.06667 4.7062,2.51868 2.66921,10.66667 -2.66667,10.66667 -1.17333,0 -2.85333,-0.72 -3.73333,-1.6 z m -192.26668,-1.70989 c 0,-1.00055 2.13352,-4.61426 4.74116,-8.03044 2.60764,-3.41619 5.29268,-7.66188 5.96678,-9.43488 4.47136,-11.76055 -10.57502,-22.95712 -20.4316,-15.20394 -7.34922,5.78088 -7.36303,14.47687 -0.0368,23.16456 1.92384,2.28136 4.32512,6.12211 5.33618,8.535 1.7605,4.20142 4.42427,4.78524 4.42427,0.9697 z m -7.12668,-16.46176 c -2.9328,-3.24071 -2.78882,-4.54992 0.87928,-7.99594 3.76152,-3.53376 5.18587,-3.61537 8.04075,-0.46076 2.77129,3.06224 2.80977,6.10143 0.11147,8.79978 -2.78388,2.78388 -6.32327,2.64942 -9.03144,-0.34308 z M 201.33334,168.69011 c 0,-1.00055 2.13352,-4.61425 4.74116,-8.03044 2.60764,-3.41619 5.29268,-7.66188 5.96677,-9.43488 4.47136,-11.76055 -10.57501,-22.95713 -20.4316,-15.20393 -7.34921,5.78088 -7.36302,14.47686 -0.0368,23.16456 1.92384,2.28136 4.32512,6.1221 5.33619,8.535 1.76049,4.20141 4.42427,4.78524 4.42427,0.96969 z m -6.64349,-17.32885 c -2.8922,-3.4849 0.35342,-8.98227 4.98809,-8.44874 3.20856,0.36938 3.6554,0.99128 3.6554,5.08748 0,4.02676 -0.47272,4.72162 -3.44747,5.06742 -1.94082,0.2256 -4.21162,-0.52003 -5.19602,-1.70616 z M 45.062181,60.81954 C 39.726048,58.878789 30.129261,49.948231 31.316157,48.027793 c 0.400039,-0.647275 0.11756,-1.553732 -0.62774,-2.014351 -2.041951,-1.261995 -1.627035,-9.704001 0.720039,-14.65009 2.306233,-4.860026 7.332216,-10.076732 10.113841,-10.497634 0.996071,-0.150722 2.500587,-0.705216 3.343371,-1.232211 2.061524,-1.289079 12.404215,-0.814864 13.284265,0.609085 0.385549,0.623832 1.259538,0.789043 1.9422,0.367135 0.682661,-0.421908 1.241202,-0.131695 1.241202,0.644917 0,0.776612 0.856452,1.412023 1.903227,1.412023 5.117858,0 11.065036,13.754002 9.516455,22.008647 -0.826313,4.404627 -9.477188,15.103626 -12.473548,15.426702 -0.986858,0.1064 -3.106656,0.609137 -7.612801,1.805448 -1.466666,0.389378 -4.888685,-0.100187 -7.604487,-1.087924 z M 655.18477,58.793634 c -10.05798,-6.133175 -13.52354,-17.916791 -8.27052,-28.121479 9.8266,-19.089449 37.96216,-13.758825 40.63421,7.698644 0.80522,6.46615 -3.94957,15.878478 -10.07894,19.951774 -5.83095,3.874969 -16.33834,4.097077 -22.28475,0.471061 z M 94.091442,52.898406 C 92.394935,51.657891 91.94954,50.259474 92.599104,48.212878 l 0.925906,-2.917267 41.42609,0.352195 c 38.31276,0.325725 41.53717,0.533423 42.90417,2.76362 1.18328,1.930488 0.96188,2.794733 -1.1101,4.333333 -3.65071,2.710923 -78.96498,2.850926 -82.653728,0.153647 z M 94.4294,34.214183 c -1.471332,-1.118663 -1.843805,-2.337647 -1.087977,-3.560601 0.632111,-1.022776 0.946177,-2.18824 0.697924,-2.58992 -0.248252,-0.40168 35.134043,-0.730328 78.627323,-0.730328 43.49328,0 78.87558,0.328648 78.62732,0.730328 -0.24825,0.40168 0.0659,1.567144 0.69792,2.58992 3.09915,5.014516 -0.6261,5.261609 -79.32524,5.261609 -59.56032,0 -76.483947,-0.367948 -78.23727,-1.701008 z M 0.11460366,9.6666668 0,0 9.0000003,0.00105143 18.000001,0.00210285 12.425147,2.7616296 C 6.7017746,5.5946726 3.1126437,9.8186237 1.2742981,15.884763 0.53372019,18.328508 0.19581474,16.516714 0.11460366,9.6666668 Z M 713.33336,16.490712 c 0,-4.175695 -5.44087,-10.9319167 -11.0326,-13.6997854 l -5.63407,-2.78882375 9,-0.00105142 9,-0.00105143 v 9.3333335 c 0,5.1333335 -0.3,9.3333335 -0.66667,9.3333335 -0.36666,0 -0.66666,-0.97918 -0.66666,-2.175955 z"
         id="path584" />
      <path
         style="fill:#738c99;stroke-width:1.33333"
         d="m 540.58819,459.29094 c 1.42349,-1.07668 4.45881,-1.9576 6.74516,-1.9576 2.28635,0 5.32167,0.88092 6.74516,1.9576 2.35508,1.78129 1.74761,1.95759 -6.74516,1.95759 -8.49277,0 -9.10024,-0.1763 -6.74516,-1.95759 z M 24.567443,416.44445 c 0.37521,-0.97778 10e-4,-1.77778 -0.83151,-1.77778 -0.83254,0 -1.123036,-0.39068 -0.645546,-0.86816 0.477491,-0.47749 -0.172509,-1.72198 -1.444445,-2.76554 -1.531685,-1.25667 -1.637247,-1.60096 -0.312608,-1.01958 1.1,0.4828 -0.1,-1.02322 -2.666667,-3.34672 -2.566666,-2.32349 -3.766667,-3.82952 -2.666666,-3.34672 1.324638,0.58139 1.219077,0.2371 -0.312608,-1.01957 -1.271937,-1.04356 -1.889313,-2.32068 -1.371949,-2.83804 0.517364,-0.51736 0.120614,-1.44748 -0.881681,-2.06693 -1.192686,-0.73712 -1.454218,-1.97898 -0.756923,-3.59418 0.585981,-1.35733 1.123411,-3.06789 1.19429,-3.80122 0.209577,-2.16835 5.176899,-7.25502 6.366709,-6.51968 0.602522,0.37238 1.095495,0.16165 1.095495,-0.4683 0,-0.62994 2.1,-1.14536 4.666667,-1.14536 2.566667,0 4.666667,0.51542 4.666667,1.14536 0,0.62995 0.492973,0.84068 1.095494,0.4683 1.189811,-0.73534 6.157133,4.35133 6.36671,6.51968 0.07088,0.73333 0.608309,2.44389 1.194289,3.80122 0.697296,1.6152 0.435763,2.85706 -0.756922,3.59418 -1.00229,0.61945 -1.399046,1.54957 -0.881682,2.06693 0.517364,0.51736 -0.100013,1.79448 -1.371948,2.83804 -1.540836,1.26417 -1.64516,1.608 -0.312608,1.03025 1.1,-0.47692 0.5,0.45792 -1.333333,2.07743 -1.833334,1.61951 -3.177768,3.48192 -2.987634,4.13869 0.190136,0.65676 -0.556418,1.5403 -1.659008,1.9634 -1.10259,0.42311 -1.672745,1.30642 -1.26701,1.9629 0.405733,0.65649 0.03809,1.19362 -0.816978,1.19362 -0.85507,0 -1.247685,0.8 -0.872477,1.77778 0.375209,0.97778 -0.186417,1.77778 -1.248059,1.77778 -1.06164,0 -1.623267,-0.8 -1.248059,-1.77778 z m 3.971011,-16.85248 c 1.463879,-1.07042 2.204242,-2.99694 1.921507,-5 -0.387835,-2.74764 -1.191735,-3.25863 -5.126627,-3.25863 -3.857625,0 -4.7422,0.53283 -5.102352,3.07339 -0.470555,3.31937 1.791768,6.92661 4.344105,6.92661 0.870046,0 2.653561,-0.78361 3.963367,-1.74137 z m 0.02899,-37.81419 c 0.375212,-0.97777 0.001,-1.77777 -0.831508,-1.77777 -0.83254,0 -1.123036,-0.39068 -0.645545,-0.86816 0.47749,-0.4775 -0.17251,-1.72199 -1.444446,-2.76555 -1.531685,-1.25667 -1.637247,-1.60096 -0.312608,-1.01957 1.1,0.4828 -0.1,-1.02323 -2.666667,-3.34672 -2.566666,-2.3235 -3.766666,-3.82952 -2.666666,-3.34672 1.324638,0.58138 1.219077,0.23709 -0.312608,-1.01958 -1.271936,-1.04356 -1.936435,-2.27355 -1.476667,-2.73332 0.459769,-0.45977 0.07697,-1.75044 -0.850651,-2.86816 -1.24951,-1.50557 -1.301746,-2.49593 -0.201569,-3.82157 0.816764,-0.98414 1.090231,-2.18414 0.607704,-2.66667 -0.482527,-0.48252 -0.07732,-0.87732 0.900457,-0.87732 0.977778,0 1.42707,-0.35071 0.998424,-0.77936 -1.094628,-1.09463 3.236099,-5.89975 4.572748,-5.07365 0.602522,0.37238 1.095495,0.16165 1.095495,-0.4683 0,-0.62994 2.1,-1.14536 4.666667,-1.14536 2.566667,0 4.666667,0.51542 4.666667,1.14536 0,0.62995 0.492973,0.84068 1.095495,0.4683 1.18981,-0.73534 6.157132,4.35133 6.366709,6.51968 0.07088,0.73333 0.608309,2.44389 1.194289,3.80122 0.697296,1.6152 0.435763,2.85706 -0.756922,3.59418 -1.00229,0.61945 -1.399046,1.54957 -0.881682,2.06693 0.517364,0.51736 -0.100013,1.79448 -1.371948,2.83804 -1.540836,1.26418 -1.64516,1.608 -0.312608,1.03026 1.1,-0.47692 0.5,0.45792 -1.333333,2.07742 -1.833333,1.61951 -3.177768,3.48192 -2.987634,4.1387 0.190137,0.65676 -0.556418,1.54029 -1.659008,1.9634 -1.10259,0.4231 -1.672745,1.30641 -1.26701,1.96289 0.405733,0.65649 0.03809,1.19363 -0.816978,1.19363 -0.85507,0 -1.247685,0.8 -0.872477,1.77777 0.375209,0.97779 -0.186417,1.77779 -1.248059,1.77779 -1.06164,0 -1.623266,-0.8 -1.248058,-1.77779 z m 5.337319,-15.87302 c 2.65946,-2.65945 2.65946,-5.15006 0,-7.80952 -3.768678,-3.76868 -8.571426,-1.58076 -8.571426,3.90476 0,5.48553 4.802748,7.67345 8.571428,3.90476 z M 535.23412,335.11111 c 0.37522,-0.97777 0.001,-1.77777 -0.8315,-1.77777 -0.83255,0 -1.12304,-0.39068 -0.64555,-0.86816 0.47749,-0.4775 -0.17251,-1.72199 -1.44444,-2.76555 -1.53169,-1.25667 -1.63725,-1.60096 -0.31261,-1.01957 1.1,0.4828 -0.1,-1.02323 -2.66667,-3.34672 -2.56667,-2.3235 -3.76667,-3.82952 -2.66667,-3.34672 1.32464,0.58138 1.21908,0.23709 -0.31261,-1.01958 -1.27193,-1.04356 -1.88931,-2.32068 -1.37195,-2.83804 0.51738,-0.51736 0.12067,-1.44748 -0.88168,-2.06693 -1.19649,-0.73947 -1.45396,-1.97381 -0.7497,-3.59417 0.58994,-1.35734 0.97738,-2.9179 0.86096,-3.4679 -0.1164,-0.55 0.48832,-1 1.34388,-1 0.85554,0 1.20484,-0.3507 0.7762,-0.77936 -1.09463,-1.09462 3.23609,-5.89974 4.57274,-5.07365 0.60252,0.37239 1.0955,0.16165 1.0955,-0.46829 0,-0.62995 2.1,-1.14536 4.66666,-1.14536 2.56667,0 4.66667,0.51541 4.66667,1.14536 0,0.62994 0.49297,0.84068 1.09549,0.46829 1.18982,-0.73533 6.15714,4.35133 6.36671,6.51968 0.0709,0.73333 0.60831,2.44389 1.19429,3.80123 0.6973,1.6152 0.43576,2.85705 -0.75692,3.59417 -1.00229,0.61945 -1.39905,1.54957 -0.88168,2.06693 0.51736,0.51736 -0.1,1.79448 -1.37194,2.83804 -1.54084,1.26418 -1.64516,1.608 -0.31262,1.03026 1.1,-0.47692 0.5,0.45792 -1.33333,2.07742 -1.83333,1.61951 -3.17777,3.48192 -2.98763,4.1387 0.19014,0.65676 -0.55642,1.54029 -1.65901,1.9634 -1.10259,0.4231 -1.67275,1.30641 -1.26701,1.96289 0.40573,0.65649 0.0381,1.19363 -0.81698,1.19363 -0.85506,0 -1.24769,0.8 -0.87248,1.77777 0.37522,0.97779 -0.18641,1.77779 -1.24805,1.77779 -1.06164,0 -1.62327,-0.8 -1.24807,-1.77779 z m 5.33732,-15.87301 C 544.61506,315.19448 541.6885,308 536.00002,308 c -3.18139,0 -6.66667,3.48528 -6.66667,6.66667 0,3.18139 3.48528,6.66667 6.66667,6.66667 1.3619,0 3.41905,-0.94286 4.57142,-2.09524 z m 34.66269,-5.46032 C 575.60934,312.8 575.23515,312 574.40262,312 c -0.83255,0 -1.12304,-0.39068 -0.64555,-0.86816 0.4775,-0.47749 -0.1725,-1.72198 -1.44444,-2.76554 -1.53169,-1.25667 -1.63725,-1.60096 -0.31261,-1.01958 1.1,0.4828 -0.1,-1.02322 -2.66667,-3.34672 -2.56666,-2.32349 -3.76666,-3.82952 -2.66666,-3.34672 1.32464,0.58139 1.21908,0.2371 -0.31262,-1.01957 -1.27193,-1.04356 -1.8893,-2.32068 -1.37194,-2.83804 0.51737,-0.51736 0.12066,-1.44748 -0.88168,-2.06693 -1.1965,-0.73947 -1.45396,-1.97382 -0.74971,-3.59418 0.58995,-1.35733 0.97739,-2.91789 0.86096,-3.46789 -0.1164,-0.55 0.48832,-1 1.34388,-1 0.85555,0 1.20484,-0.35071 0.7762,-0.77936 -1.09463,-1.09463 3.23609,-5.89975 4.57275,-5.07365 0.60252,0.37238 1.09549,0.16165 1.09549,-0.4683 0,-0.62994 2.1,-1.14536 4.66667,-1.14536 2.56666,0 4.66666,0.51542 4.66666,1.14536 0,0.62995 0.49298,0.84068 1.0955,0.4683 1.18981,-0.73534 6.15713,4.35133 6.3667,6.51968 0.0709,0.73333 0.60831,2.44389 1.1943,3.80122 0.69729,1.6152 0.43576,2.85706 -0.75692,3.59418 -1.0023,0.61945 -1.39906,1.54957 -0.88168,2.06693 0.51736,0.51736 -0.1,1.79448 -1.37195,2.83804 -1.54084,1.26417 -1.64516,1.608 -0.31261,1.03025 1.1,-0.47692 0.5,0.45792 -1.33334,2.07743 -1.83333,1.61951 -3.17777,3.48192 -2.98762,4.13869 0.19013,0.65676 -0.55643,1.5403 -1.65902,1.9634 -1.10258,0.42311 -1.67274,1.30642 -1.26701,1.9629 0.40573,0.65649 0.0381,1.19362 -0.81697,1.19362 -0.85507,0 -1.2477,0.8 -0.87248,1.77778 0.37521,0.97778 -0.18642,1.77778 -1.24806,1.77778 -1.06164,0 -1.62326,-0.8 -1.24806,-1.77778 z m 5.33732,-15.87302 c 6.2488,-6.24878 -2.24356,-14.96473 -8.79978,-9.03144 -3.02558,2.73811 -3.09973,5.51919 -0.23166,8.68836 2.70817,2.99251 6.24756,3.12696 9.03144,0.34308 z M 49.900778,277.77778 C 50.275987,276.8 49.901807,276 49.069267,276 c -0.83254,0 -1.123036,-0.39068 -0.645545,-0.86816 0.47749,-0.47749 -0.17251,-1.72198 -1.444446,-2.76554 -1.531685,-1.25667 -1.637247,-1.60096 -0.312608,-1.01958 1.1,0.4828 -0.1,-1.02322 -2.666667,-3.34672 -2.566666,-2.32349 -3.766666,-3.82952 -2.666666,-3.34672 1.324638,0.58139 1.219077,0.2371 -0.312608,-1.01957 -1.271936,-1.04356 -1.889312,-2.32068 -1.371948,-2.83804 0.517364,-0.51736 0.120613,-1.44748 -0.881682,-2.06693 -1.196496,-0.73947 -1.453968,-1.97382 -0.749708,-3.59418 0.58995,-1.35733 0.97738,-2.91789 0.860958,-3.46789 -0.116427,-0.55 0.488321,-1 1.343877,-1 0.855555,0 1.204847,-0.35071 0.776201,-0.77936 -1.094628,-1.09463 3.236099,-5.89975 4.572748,-5.07365 0.602522,0.37238 1.095495,0.16165 1.095495,-0.4683 0,-0.62994 2.1,-1.14536 4.666667,-1.14536 2.566667,0 4.666667,0.51542 4.666667,1.14536 0,0.62995 0.492973,0.84068 1.095495,0.4683 1.18981,-0.73534 6.157132,4.35133 6.366709,6.51968 0.07088,0.73333 0.608309,2.44389 1.194289,3.80122 0.697296,1.6152 0.435763,2.85706 -0.756922,3.59418 -1.00229,0.61945 -1.399046,1.54957 -0.881682,2.06693 0.517364,0.51736 -0.100013,1.79448 -1.371948,2.83804 -1.540836,1.26417 -1.64516,1.608 -0.312608,1.03025 1.1,-0.47692 0.5,0.45792 -1.333333,2.07743 -1.833333,1.61951 -3.177768,3.48192 -2.987633,4.13869 0.190136,0.65676 -0.556419,1.5403 -1.659009,1.9634 -1.10259,0.42311 -1.672745,1.30642 -1.26701,1.9629 0.405733,0.65649 0.03809,1.19362 -0.816978,1.19362 -0.85507,0 -1.247685,0.8 -0.872477,1.77778 0.375209,0.97778 -0.186417,1.77778 -1.248059,1.77778 -1.06164,0 -1.623266,-0.8 -1.248058,-1.77778 z m 5.432557,-20.96579 c 0,-4.75771 -3.579717,-7.48285 -7,-5.32892 -5.230916,3.29419 -2.632891,10.30336 3.552539,9.58435 2.820332,-0.32786 3.447461,-1.10196 3.447461,-4.25543 z M 637.2773,213.85259 c -0.7614,-2.00267 -3.46028,-6.46916 -5.99749,-9.92553 -6.15128,-8.37971 -6.39594,-15.68271 -0.71568,-21.36295 6.80792,-6.80793 16.98358,-4.49675 20.84018,4.7334 2.30976,5.52805 1.33078,9.07333 -4.94828,17.91955 -2.81748,3.96938 -5.12268,7.98397 -5.12268,8.9213 0,3.44047 -2.71198,3.24939 -4.05605,-0.28577 z m 6.45605,-16.78592 c 4.52572,-4.52572 -0.7965,-12.06556 -6.4,-9.06667 -4.7062,2.51868 -2.66921,10.66667 2.66667,10.66667 1.17333,0 2.85333,-0.72 3.73333,-1.6 z m -203.1659,-1.95556 c 0.37522,-0.97777 10e-4,-1.77777 -0.8315,-1.77777 -0.83255,0 -1.12304,-0.39068 -0.64555,-0.86816 0.47749,-0.4775 -0.17251,-1.72199 -1.44444,-2.76555 -1.53169,-1.25667 -1.63725,-1.60096 -0.31261,-1.01957 1.1,0.4828 -0.1,-1.02323 -2.66667,-3.34672 -2.56667,-2.3235 -3.76667,-3.82952 -2.66667,-3.34672 1.32464,0.58138 1.21908,0.23709 -0.31261,-1.01958 -1.27193,-1.04356 -1.88931,-2.32068 -1.37195,-2.83804 0.51738,-0.51736 0.12067,-1.44748 -0.88168,-2.06693 -1.19649,-0.73947 -1.45396,-1.97381 -0.7497,-3.59417 0.58994,-1.35734 0.97738,-2.9179 0.86096,-3.4679 -0.1164,-0.55 0.48832,-1 1.34388,-1 0.85554,0 1.20484,-0.3507 0.7762,-0.77936 -1.09463,-1.09462 3.23609,-5.89974 4.57274,-5.07365 0.60252,0.37239 1.0955,0.16165 1.0955,-0.46829 0,-0.62995 2.1,-1.14536 4.66666,-1.14536 2.56667,0 4.66667,0.51541 4.66667,1.14536 0,0.62994 0.49297,0.84068 1.09549,0.46829 1.18982,-0.73533 6.15714,4.35133 6.36671,6.51968 0.0709,0.73333 0.60831,2.44389 1.19429,3.80123 0.6973,1.6152 0.43576,2.85705 -0.75692,3.59417 -1.00229,0.61945 -1.39905,1.54957 -0.88168,2.06693 0.51736,0.51736 -0.1,1.79448 -1.37194,2.83804 -1.54084,1.26418 -1.64516,1.608 -0.31262,1.03026 1.1,-0.47692 0.5,0.45792 -1.33333,2.07742 -1.83333,1.61951 -3.17777,3.48192 -2.98763,4.1387 0.19014,0.65676 -0.55642,1.54029 -1.65901,1.9634 -1.10259,0.4231 -1.67275,1.30641 -1.26701,1.96289 0.40573,0.65649 0.0381,1.19363 -0.81698,1.19363 -0.85506,0 -1.24769,0.8 -0.87248,1.77777 0.37522,0.97779 -0.18641,1.77779 -1.24805,1.77779 -1.06164,0 -1.62327,-0.8 -1.24807,-1.77779 z m 5.33732,-15.87301 c 2.69836,-2.69835 2.65988,-5.73754 -0.11146,-8.79978 -2.85488,-3.15461 -4.27923,-3.073 -8.04075,0.46076 -3.66811,3.44602 -3.81208,4.75523 -0.87928,7.99594 2.70817,2.9925 6.24756,3.12696 9.03144,0.34308 z M 197.90078,168.44444 c 0.37521,-0.97777 0.001,-1.77777 -0.83151,-1.77777 -0.83254,0 -1.12304,-0.39068 -0.64554,-0.86816 0.47749,-0.47749 -0.17251,-1.72199 -1.44444,-2.76555 -1.5317,-1.25666 -1.63726,-1.60096 -0.31262,-1.01957 1.1,0.4828 -0.1,-1.02323 -2.66666,-3.34672 -2.56667,-2.32349 -3.76667,-3.82952 -2.66667,-3.34672 1.32464,0.58139 1.21908,0.23709 -0.31261,-1.01957 -1.27194,-1.04356 -1.88931,-2.32068 -1.37195,-2.83804 0.51737,-0.51736 0.12067,-1.44748 -0.88168,-2.06694 -1.19649,-0.73946 -1.45396,-1.97381 -0.74971,-3.59417 0.58995,-1.35733 0.97739,-2.91789 0.86096,-3.46789 -0.1164,-0.55 0.48832,-1 1.34388,-1 0.85555,0 1.20484,-0.35071 0.7762,-0.77936 -1.09462,-1.09463 3.2361,-5.89975 4.57275,-5.07366 0.60252,0.37239 1.09549,0.16166 1.09549,-0.46829 0,-0.62995 2.1,-1.14536 4.66667,-1.14536 2.56667,0 4.66667,0.51541 4.66667,1.14536 0,0.62995 0.49297,0.84068 1.09549,0.46829 1.18981,-0.73533 6.15713,4.35134 6.36671,6.51968 0.0709,0.73334 0.6083,2.4439 1.19429,3.80123 0.69729,1.6152 0.43576,2.85705 -0.75692,3.59417 -1.00229,0.61946 -1.39905,1.54958 -0.88168,2.06694 0.51736,0.51736 -0.1,1.79448 -1.37195,2.83804 -1.54084,1.26417 -1.64516,1.608 -0.31261,1.03025 1.1,-0.47692 0.5,0.45792 -1.33333,2.07743 -1.83334,1.6195 -3.17778,3.48192 -2.98763,4.13869 0.19013,0.65676 -0.55643,1.54029 -1.65901,1.9634 -1.10259,0.42311 -1.67275,1.30641 -1.26702,1.96289 0.40574,0.6565 0.0381,1.19363 -0.81697,1.19363 -0.85507,0 -1.24769,0.8 -0.87248,1.77777 0.37521,0.97779 -0.18641,1.77779 -1.24805,1.77779 -1.06164,0 -1.62327,-0.8 -1.24807,-1.77779 z M 203.33334,148 c 0,-4.0962 -0.44684,-4.7181 -3.6554,-5.08748 -2.83651,-0.32653 -4.00052,0.33668 -5.19603,2.96052 -2.00198,4.39388 0.52736,7.76124 5.40396,7.19438 2.97475,-0.3458 3.44747,-1.04066 3.44747,-5.06742 z M 134.42852,27.000643 c 21.50237,-0.206007 56.30237,-0.205856 77.33334,3.35e-4 21.03099,0.20619 3.43815,0.374741 -39.09519,0.374558 -42.53333,-1.84e-4 -59.7405,-0.168885 -38.23815,-0.374893 z M 187.00001,0.33337823 c 93.68333,-0.18893371 246.98334,-0.18893371 340.66667,0 93.68334,0.18893372 17.03334,0.34351585 -170.33334,0.34351585 -187.36667,0 -264.01667,-0.15458213 -170.33333,-0.34351585 z"
         id="path582" />
      <path
         style="fill:#627d8c;stroke-width:1.33333"
         d="m 25.374169,419.33334 c 0,-0.73333 0.581624,-2.23333 1.292499,-3.33333 0.710874,-1.1 1.292498,-1.4 1.292498,-0.66667 0,0.73333 -0.581624,2.23333 -1.292498,3.33333 -0.710875,1.1 -1.292499,1.4 -1.292499,0.66667 z m -5.544242,-11 c -1.658494,-2.11475 -1.611334,-2.16191 0.503407,-0.50341 1.283333,1.00646 2.333333,2.05646 2.333333,2.33333 0,1.09739 -1.094914,0.39108 -2.83674,-1.82992 z m 5.253407,-26.57748 c 0.9625,-0.38516 2.1125,-0.3378 2.555556,0.1052 0.443055,0.44305 -0.344445,0.75819 -1.75,0.70029 -1.553257,-0.064 -1.8692,-0.37992 -0.805556,-0.80554 z m 4.290835,-17.08919 c 0,-0.73333 0.581624,-2.23333 1.292499,-3.33333 0.710874,-1.1 1.292498,-1.4 1.292498,-0.66667 0,0.73334 -0.581624,2.23334 -1.292498,3.33334 -0.710875,1.1 -1.292499,1.4 -1.292499,0.66666 z m -5.544242,-11 c -1.658494,-2.11474 -1.611334,-2.1619 0.503407,-0.50341 1.283334,1.00647 2.333334,2.05647 2.333334,2.33333 0,1.09739 -1.094915,0.39108 -2.836741,-1.82992 z M 536.04086,338 c 0,-0.73333 0.58161,-2.23333 1.29249,-3.33333 0.71088,-1.1 1.29249,-1.4 1.29249,-0.66667 0,0.73334 -0.58161,2.23334 -1.29249,3.33334 -0.71088,1.1 -1.29249,1.4 -1.29249,0.66666 z m -5.54426,-11 c -1.65849,-2.11474 -1.61133,-2.1619 0.50342,-0.50341 1.28333,1.00647 2.33333,2.05647 2.33333,2.33333 0,1.09739 -1.09492,0.39108 -2.83675,-1.82992 z m -501.413266,0.0892 c 0.9625,-0.38516 2.1125,-0.3378 2.555556,0.1052 0.443055,0.44306 -0.344445,0.75819 -1.75,0.7003 -1.553257,-0.064 -1.8692,-0.37992 -0.805556,-0.80555 z M 576.04086,316.66667 c 0,-0.73333 0.58161,-2.23333 1.29249,-3.33333 0.71088,-1.1 1.2925,-1.4 1.2925,-0.66667 0,0.73333 -0.58162,2.23333 -1.2925,3.33333 -0.71088,1.1 -1.29249,1.4 -1.29249,0.66667 z m -5.54425,-11 c -1.6585,-2.11475 -1.61134,-2.16191 0.50341,-0.50341 1.28333,1.00646 2.33333,2.05646 2.33333,2.33333 0,1.09739 -1.09492,0.39108 -2.83674,-1.82992 z m -34.74659,-5.24415 c 0.96249,-0.38516 2.1125,-0.3378 2.55556,0.1052 0.44305,0.44306 -0.34446,0.75819 -1.75,0.7003 -1.55327,-0.064 -1.8692,-0.37992 -0.80556,-0.80555 z M 50.707503,280.66667 c 0,-0.73333 0.581624,-2.23333 1.292499,-3.33333 0.710874,-1.1 1.292498,-1.4 1.292498,-0.66667 0,0.73333 -0.581624,2.23333 -1.292498,3.33333 -0.710875,1.1 -1.292499,1.4 -1.292499,0.66667 z m 525.042517,-1.57748 c 0.96249,-0.38516 2.11251,-0.3378 2.55556,0.1052 0.44305,0.44305 -0.34445,0.75819 -1.75,0.70029 -1.55327,-0.064 -1.8692,-0.37992 -0.80556,-0.80554 z M 45.163261,269.66667 c -1.658494,-2.11475 -1.611334,-2.16191 0.503407,-0.50341 1.283334,1.00646 2.333334,2.05646 2.333334,2.33333 0,1.09739 -1.094915,0.39108 -2.836741,-1.82992 z m 5.253407,-26.57748 c 0.9625,-0.38516 2.1125,-0.3378 2.555556,0.1052 0.443055,0.44305 -0.344445,0.75819 -1.75,0.70029 -1.553257,-0.064 -1.8692,-0.37992 -0.805556,-0.80554 z M 441.37419,198 c 0,-0.73333 0.58161,-2.23333 1.29249,-3.33333 0.71088,-1.1 1.29249,-1.4 1.29249,-0.66667 0,0.73334 -0.58161,2.23334 -1.29249,3.33334 -0.71088,1.1 -1.29249,1.4 -1.29249,0.66666 z m -5.54426,-11 c -1.65849,-2.11474 -1.61133,-2.1619 0.50342,-0.50341 2.221,1.74183 2.9273,2.83675 1.82992,2.83675 -0.27687,0 -1.32687,-1.05 -2.33334,-2.33334 z M 198.70751,171.33334 c 0,-0.73334 0.58162,-2.23334 1.2925,-3.33334 0.71088,-1.1 1.29249,-1.4 1.29249,-0.66666 0,0.73333 -0.58161,2.23333 -1.29249,3.33333 -0.71088,1.1 -1.2925,1.4 -1.2925,0.66667 z m -5.54425,-11 c -1.65849,-2.11475 -1.61133,-2.16191 0.50341,-0.50342 2.221,1.74183 2.92731,2.83675 1.82992,2.83675 -0.27686,0 -1.32686,-1.05 -2.33333,-2.33333 z m 247.92009,0.0892 c 0.96249,-0.38516 2.1125,-0.3378 2.55556,0.1052 0.44305,0.44306 -0.34446,0.75818 -1.75,0.70029 -1.55327,-0.064 -1.8692,-0.37992 -0.80556,-0.80555 z M 198.41667,133.75587 c 0.9625,-0.38516 2.1125,-0.3378 2.55556,0.1052 0.44306,0.44307 -0.34445,0.75819 -1.75,0.70029 -1.55326,-0.064 -1.8692,-0.37992 -0.80556,-0.80554 z M 663.66669,61.783626 c 0.91667,-0.369882 2.41667,-0.369882 3.33333,0 0.91667,0.369884 0.16667,0.672515 -1.66666,0.672515 -1.83334,0 -2.58334,-0.302631 -1.66667,-0.672515 z M 0.10526316,21.88889 c 0.0639786,-1.553258 0.37992042,-1.8692 0.80555559,-0.805556 0.38516085,0.9625 0.33779235,2.1125 -0.1052632,2.555556 -0.44305558,0.443054 -0.75818716,-0.344446 -0.70029239,-1.75 z m 713.33335684,0 c 0.064,-1.553258 0.37992,-1.8692 0.80555,-0.805556 0.38516,0.9625 0.3378,2.1125 -0.1052,2.555556 -0.44305,0.443054 -0.75819,-0.344446 -0.70029,-1.75 z"
         id="path580" />
      <path
         style="fill:#da382e;stroke-width:1.33333"
         d="m 345.32217,231.29947 c -0.85323,-2.58531 -2.92104,-6.33531 -4.59515,-8.33333 -6.77762,-8.0891 -10.06034,-14.14258 -10.06034,-18.55175 0,-13.21513 13.79613,-21.71384 25.4585,-15.68299 7.69719,3.98036 11.51194,15.11823 7.65711,22.35626 -0.85309,1.60178 -3.84924,5.96177 -6.65812,9.68884 -2.80888,3.72706 -5.7696,8.67706 -6.57937,11 -1.90499,5.46465 -3.30387,5.33688 -5.22263,-0.47703 z"
         id="path578" />
      <path
         style="fill:#2e374e;stroke-width:1.33333"
         d="M 0.20729093,48.333334 C 0.72432728,14.280922 1.6698011,10.2527 10.530511,4.3509289 L 15.061022,1.3333334 H 357.33334 699.60566 l 4.53052,3.0175955 c 8.86071,5.9017711 9.80618,9.9299931 10.32322,43.9824051 l 0.46057,30.333334 H 357.33334 -0.25327662 Z M 57.535393,61.299474 c 2.820634,-0.783452 6.855342,-3.551274 9.591324,-6.579679 7.579835,-8.38997 8.133495,-18.860398 1.459964,-27.609847 -4.530266,-5.939485 -9.766214,-8.443281 -17.656622,-8.443281 -19.461681,0 -28.64683,23.51697 -14.563142,37.286383 6.159815,6.02236 12.746043,7.685814 21.168476,5.346424 z M 671.39388,61.179008 c 7.26336,-1.828938 14.71686,-9.526333 16.03665,-16.561402 1.76824,-9.4255 -3.93547,-20.62669 -12.27821,-24.112512 -16.81305,-7.024934 -33.88381,6.516702 -30.55867,24.241127 1.11176,5.926252 9.01214,14.86034 14.56397,16.469579 5.67632,1.645321 5.55452,1.645688 12.23626,-0.03679 z M 176.55682,52.911871 c 1.31991,-0.965138 2.17637,-2.915138 1.90325,-4.333333 -0.47858,-2.485041 -2.04233,-2.578537 -43.12673,-2.578537 -39.973965,0 -42.658917,0.149376 -43.091845,2.397385 -1.163524,6.041695 0.373265,6.269281 42.333605,6.269281 30.6212,0 40.12517,-0.397257 41.98172,-1.754796 z m 75.39003,-18.847819 c 0.88368,-1.06477 1.39893,-3.01477 1.145,-4.333333 -0.43828,-2.275843 -4.51567,-2.397385 -80.42518,-2.397385 -75.9095,0 -79.986887,0.121542 -80.425175,2.397385 -1.225396,6.362976 -2.427353,6.269282 80.425175,6.269282 66.27432,0 77.90928,-0.284115 79.28018,-1.935949 z"
         id="path576" />
    </g>
  </g>
</svg>
