<svg id="svg" xmlns="http://www.w3.org/2000/svg" xmlns:xlink="http://www.w3.org/1999/xlink" width="400" height="177.77777777777777" viewBox="0, 0, 400,177.77777777777777"><g id="svgg"><path id="path0" d="M65.691 13.501 C 57.408 17.913,3.625 49.309,3.030 50.080 C 1.732 51.762,2.008 125.359,3.319 126.853 C 4.358 128.037,64.631 163.006,67.497 164.088 C 69.459 164.829,133.317 128.457,134.461 125.947 C 135.318 124.065,135.295 52.488,134.436 50.677 C 133.857 49.455,73.997 14.382,69.731 12.765 C 68.471 12.287,67.710 12.426,65.691 13.501 M99.139 39.239 L 126.416 54.952 126.267 88.463 L 126.118 121.973 97.296 138.616 C 71.087 153.750,68.365 155.191,67.281 154.502 C 66.626 154.086,53.557 146.527,38.240 137.705 L 10.390 121.666 10.390 88.382 L 10.390 55.099 39.394 38.319 L 68.398 21.540 70.130 22.532 C 71.082 23.078,84.136 30.596,99.139 39.239 M44.182 46.731 C 31.522 54.020,20.951 60.319,20.692 60.728 C 20.432 61.137,20.216 73.616,20.211 88.460 L 20.202 115.448 21.542 116.613 C 24.073 118.813,67.175 143.290,68.519 143.290 C 69.729 143.290,76.570 139.491,106.480 122.211 C 112.488 118.740,115.955 116.380,116.428 115.440 C 117.718 112.879,117.471 62.243,116.162 60.692 C 114.679 58.937,70.140 33.478,68.552 33.478 C 67.808 33.478,56.842 39.442,44.182 46.731 M89.610 54.564 L 108.514 65.481 108.514 88.386 L 108.514 111.292 89.033 122.561 C 78.319 128.760,69.257 133.914,68.895 134.015 C 68.534 134.116,59.248 129.007,48.260 122.661 L 28.283 111.123 28.303 88.318 L 28.322 65.512 48.360 53.909 C 65.848 43.782,68.545 42.391,69.553 42.976 C 70.188 43.345,79.214 48.560,89.610 54.564 M149.332 48.160 C 142.698 50.527,139.101 55.615,139.109 62.622 C 139.118 70.808,142.791 74.494,155.815 79.383 C 161.315 81.448,162.771 82.960,162.771 86.613 C 162.771 93.477,151.485 94.569,142.437 88.582 C 139.214 86.449,139.105 86.583,139.105 92.661 L 139.105 98.165 141.608 99.238 C 159.138 106.752,174.807 100.159,174.227 85.512 C 173.882 76.798,170.857 73.445,159.065 68.705 C 151.245 65.562,150.387 64.882,150.387 61.825 C 150.387 56.251,158.388 54.789,166.535 58.874 C 168.750 59.986,170.758 60.981,170.996 61.087 C 171.234 61.193,171.429 58.832,171.429 55.841 C 171.429 50.518,171.396 50.387,169.900 49.705 C 164.945 47.448,153.697 46.603,149.332 48.160 M182.780 48.292 C 182.569 48.504,182.395 60.322,182.395 74.555 L 182.395 100.433 188.167 100.433 L 193.939 100.433 193.939 88.889 L 193.939 77.345 200.000 77.345 L 206.061 77.345 206.061 88.889 L 206.061 100.433 211.833 100.433 L 217.605 100.433 217.605 74.170 L 217.605 47.908 211.833 47.908 L 206.061 47.908 206.061 57.720 L 206.061 67.532 200.000 67.532 L 193.939 67.532 193.939 57.720 L 193.939 47.908 188.552 47.908 C 185.589 47.908,182.992 48.081,182.780 48.292 M236.065 50.361 C 235.718 51.710,234.511 56.190,233.383 60.317 C 232.255 64.444,230.219 71.977,228.858 77.056 C 227.497 82.136,225.577 89.218,224.591 92.795 C 222.137 101.704,221.827 101.010,228.256 101.010 L 233.712 101.010 234.261 99.021 C 234.563 97.927,235.264 94.932,235.819 92.366 L 236.827 87.699 243.514 87.861 L 250.202 88.023 251.685 94.372 L 253.167 100.722 258.763 100.887 C 265.177 101.076,264.951 101.336,263.234 95.732 C 262.615 93.714,260.900 87.518,259.421 81.962 C 252.646 56.511,251.137 50.977,250.567 49.495 L 249.956 47.908 243.327 47.908 L 236.697 47.908 236.065 50.361 M269.553 74.400 L 269.553 101.010 275.036 101.010 L 280.519 101.010 280.519 90.620 L 280.519 80.231 282.395 80.233 C 286.378 80.238,291.507 87.476,296.113 99.592 C 296.683 101.090,308.802 101.909,308.802 100.450 C 308.802 99.401,298.155 78.967,296.906 77.619 L 295.662 76.277 298.336 74.904 C 305.194 71.383,306.358 58.181,300.327 52.323 C 296.761 48.859,294.451 48.342,281.241 48.049 L 269.553 47.789 269.553 74.400 M312.843 74.169 L 312.843 100.543 323.377 100.293 C 343.789 99.810,349.855 93.160,349.050 72.150 C 348.349 53.856,342.643 48.562,323.088 48.059 L 312.843 47.796 312.843 74.169 M366.832 48.611 C 366.696 49.018,365.925 51.818,365.117 54.834 C 364.309 57.850,362.316 65.253,360.687 71.284 C 351.553 105.121,351.839 101.010,358.624 101.010 L 364.001 101.010 365.644 94.372 L 367.287 87.734 373.687 87.737 L 380.087 87.739 381.851 94.230 L 383.615 100.722 389.159 100.886 L 394.703 101.051 391.950 90.496 C 389.217 80.023,384.519 62.521,381.913 53.102 L 380.555 48.196 373.816 48.034 C 368.733 47.911,367.017 48.053,366.832 48.611 M53.067 62.420 C 45.309 66.909,38.770 70.870,38.537 71.222 C 37.660 72.545,38.023 104.896,38.925 105.797 C 40.638 107.511,67.172 122.511,68.489 122.511 C 70.196 122.511,97.312 107.024,98.450 105.399 C 99.608 103.746,99.633 73.728,98.478 71.646 C 97.520 69.917,70.726 54.320,68.651 54.283 C 67.764 54.267,61.527 57.524,53.067 62.420 M288.615 57.715 C 294.246 59.279,294.188 69.503,288.542 70.632 C 287.542 70.832,285.480 70.996,283.960 70.996 L 281.195 70.996 280.790 66.676 C 280.568 64.300,280.562 61.183,280.777 59.750 L 281.167 57.143 283.874 57.146 C 285.362 57.148,287.496 57.404,288.615 57.715 M331.890 59.176 C 336.433 61.516,338.505 69.449,337.180 79.432 C 336.159 87.130,333.787 89.928,327.825 90.469 L 324.387 90.781 324.387 74.196 L 324.387 57.612 327.417 58.022 C 329.084 58.248,331.097 58.767,331.890 59.176 M376.083 70.011 C 377.174 74.391,378.066 78.092,378.066 78.237 C 378.066 78.381,376.101 78.499,373.698 78.499 C 369.811 78.499,369.363 78.388,369.626 77.489 C 370.448 74.672,373.458 61.792,373.516 60.838 C 373.578 59.821,373.602 59.825,373.841 60.895 C 373.984 61.530,374.992 65.632,376.083 70.011 M245.826 69.921 C 246.812 74.251,247.619 77.952,247.619 78.146 C 247.619 78.340,245.771 78.499,243.511 78.499 C 239.557 78.499,239.414 78.451,239.673 77.201 C 242.136 65.321,243.287 60.686,243.624 61.301 C 243.849 61.712,244.840 65.592,245.826 69.921 M77.702 68.539 C 82.535 71.315,86.446 73.616,86.391 73.651 C 84.889 74.621,69.825 83.159,69.177 83.408 C 68.269 83.757,51.306 74.440,51.306 73.594 C 51.306 73.141,67.522 63.569,68.367 63.522 C 68.667 63.506,72.868 65.763,77.702 68.539 M57.431 87.266 L 63.781 90.932 63.939 100.933 L 64.097 110.934 61.053 109.146 C 59.379 108.162,55.351 105.864,52.102 104.039 L 46.195 100.722 46.186 90.740 L 46.176 80.759 48.629 82.180 C 49.978 82.962,53.939 85.251,57.431 87.266 M90.620 91.072 L 90.620 100.759 82.154 105.647 C 77.498 108.335,73.465 110.623,73.194 110.731 C 72.922 110.839,72.771 106.456,72.858 100.991 L 73.016 91.055 81.385 86.233 C 85.988 83.582,89.949 81.406,90.188 81.399 C 90.426 81.391,90.620 85.744,90.620 91.072 M233.766 113.709 C 233.766 115.055,234.023 115.440,234.921 115.440 C 235.819 115.440,236.075 115.055,236.075 113.709 C 236.075 112.362,235.819 111.977,234.921 111.977 C 234.023 111.977,233.766 112.362,233.766 113.709 M361.712 112.362 C 361.501 112.573,361.328 113.353,361.328 114.093 C 361.328 115.641,363.292 116.016,363.845 114.574 C 364.516 112.825,362.913 111.161,361.712 112.362 M140.897 113.069 C 139.685 113.856,140.597 115.440,142.262 115.440 L 143.723 115.440 143.723 121.212 L 143.723 126.984 141.991 126.984 C 140.645 126.984,140.260 127.241,140.260 128.139 C 140.260 129.202,140.645 129.293,145.166 129.293 C 149.687 129.293,150.072 129.202,150.072 128.139 C 150.072 127.241,149.687 126.984,148.341 126.984 L 146.609 126.984 146.609 121.250 L 146.609 115.517 148.196 115.334 C 149.338 115.203,149.784 114.827,149.784 113.997 C 149.784 112.719,142.593 111.968,140.897 113.069 M281.504 112.917 C 281.280 113.141,281.097 116.917,281.097 121.308 L 281.097 129.293 286.291 129.293 C 291.101 129.293,291.486 129.207,291.486 128.139 C 291.486 127.103,291.101 126.984,287.734 126.984 L 283.983 126.984 283.983 124.387 L 283.983 121.789 287.446 121.789 C 290.524 121.789,290.909 121.661,290.909 120.635 C 290.909 119.609,290.524 119.481,287.446 119.481 L 283.983 119.481 283.983 117.460 L 283.983 115.440 287.486 115.440 C 290.789 115.440,290.979 115.366,290.805 114.141 C 290.618 112.825,282.645 111.775,281.504 112.917 M219.336 115.152 C 219.336 116.306,219.048 116.595,217.893 116.595 C 216.835 116.595,216.450 116.902,216.450 117.749 C 216.450 118.581,216.835 118.903,217.830 118.903 C 219.141 118.903,219.221 119.116,219.425 123.152 C 219.693 128.467,220.317 129.293,224.067 129.293 C 227.417 129.293,228.042 127.444,224.817 127.076 C 222.572 126.821,222.242 126.204,222.231 122.257 L 222.222 118.973 224.387 118.794 C 225.846 118.673,226.551 118.333,226.551 117.749 C 226.551 117.165,225.846 116.825,224.387 116.704 C 222.526 116.550,222.222 116.327,222.222 115.117 C 222.222 113.999,221.924 113.709,220.779 113.709 C 219.625 113.709,219.336 113.997,219.336 115.152 M308.802 115.152 C 308.802 116.306,308.514 116.595,307.359 116.595 C 306.301 116.595,305.916 116.902,305.916 117.749 C 305.916 118.595,306.301 118.903,307.359 118.903 C 308.757 118.903,308.802 119.027,308.802 122.815 C 308.802 128.125,309.649 129.293,313.495 129.293 C 316.877 129.293,317.533 127.446,314.283 127.076 C 312.038 126.821,311.708 126.204,311.697 122.257 L 311.688 118.973 313.853 118.794 C 315.312 118.673,316.017 118.333,316.017 117.749 C 316.017 117.165,315.312 116.825,313.853 116.704 C 311.992 116.550,311.688 116.327,311.688 115.117 C 311.688 113.999,311.390 113.709,310.245 113.709 C 309.091 113.709,308.802 113.997,308.802 115.152 M153.173 117.445 C 152.224 119.918,153.287 129.010,154.545 129.189 C 155.759 129.361,155.848 129.154,155.902 126.014 C 155.974 121.798,156.456 120.050,157.767 119.247 C 159.513 118.176,160.462 120.227,160.462 125.074 C 160.462 129.232,160.483 129.293,161.962 129.293 L 163.463 129.293 163.261 124.158 C 162.995 117.389,162.362 116.614,157.167 116.703 C 154.891 116.742,153.331 117.032,153.173 117.445 M166.234 123.069 C 166.234 129.277,166.254 129.370,167.532 129.189 C 168.725 129.019,168.855 128.631,169.120 124.446 C 169.631 116.373,173.160 116.635,173.160 124.746 C 173.160 129.258,173.172 129.293,174.661 129.293 L 176.161 129.293 175.959 124.158 C 175.694 117.405,175.053 116.615,169.916 116.702 L 166.234 116.765 166.234 123.069 M180.101 117.734 C 177.774 120.061,177.770 126.378,180.093 128.260 C 184.668 131.964,190.432 126.902,188.750 120.656 C 187.699 116.754,182.753 115.083,180.101 117.734 M190.916 116.924 C 190.735 117.105,191.499 119.976,192.614 123.305 C 194.633 129.336,194.646 129.356,196.406 129.181 C 198.095 129.012,198.256 128.753,200.096 123.254 C 202.388 116.404,202.372 116.595,200.661 116.595 C 199.468 116.595,199.144 117.128,198.001 120.977 C 196.530 125.935,196.310 125.904,194.541 120.491 C 193.344 116.827,192.169 115.671,190.916 116.924 M205.211 117.377 C 203.425 118.683,204.452 120.156,206.622 119.400 C 208.750 118.658,211.255 119.176,211.255 120.357 C 211.255 120.986,210.567 121.212,208.658 121.212 C 204.393 121.212,202.326 124.692,204.635 127.988 C 205.414 129.101,206.020 129.242,209.829 129.198 L 214.141 129.147 214.141 124.288 C 214.141 117.454,209.752 114.057,205.211 117.377 M230.592 117.172 C 230.018 118.100,230.837 118.903,232.357 118.903 C 233.717 118.903,233.766 119.045,233.766 122.944 L 233.766 126.984 231.746 126.984 C 230.111 126.984,229.726 127.204,229.726 128.139 C 229.726 129.207,230.111 129.293,234.921 129.293 C 239.731 129.293,240.115 129.207,240.115 128.139 C 240.115 127.204,239.731 126.984,238.095 126.984 L 236.075 126.984 236.075 121.789 L 236.075 116.595 233.512 116.595 C 232.102 116.595,230.788 116.854,230.592 117.172 M241.847 117.349 C 241.847 120.566,245.819 129.011,247.407 129.171 C 249.017 129.333,249.121 129.174,251.227 123.323 C 253.789 116.203,253.744 116.595,252.007 116.595 C 250.807 116.595,250.408 117.182,249.018 120.993 L 247.414 125.392 245.929 121.137 C 244.507 117.061,241.847 114.593,241.847 117.349 M257.066 117.617 C 252.145 121.604,254.552 129.307,260.712 129.285 C 264.346 129.272,265.512 128.752,265.512 127.144 C 265.512 126.004,265.303 125.791,264.502 126.113 C 261.654 127.262,259.331 127.130,258.376 125.767 C 256.908 123.671,257.139 123.521,261.836 123.521 L 266.241 123.521 265.896 121.356 C 265.238 117.227,260.188 115.089,257.066 117.617 M293.218 117.085 C 293.218 117.355,293.997 118.651,294.949 119.966 C 297.075 122.901,297.094 122.515,294.661 125.830 C 292.254 129.109,292.223 129.293,294.078 129.293 C 295.086 129.293,295.906 128.691,296.820 127.280 C 298.439 124.781,298.604 124.781,300.144 127.273 C 301.014 128.680,301.816 129.293,302.789 129.293 C 304.670 129.293,304.550 128.548,302.167 125.427 L 300.150 122.785 302.167 119.977 C 304.570 116.633,304.577 116.595,302.763 116.595 C 301.775 116.595,300.907 117.232,299.924 118.679 L 298.508 120.763 297.161 118.686 C 295.928 116.783,293.218 115.683,293.218 117.085 M320.924 122.944 C 320.924 129.254,320.932 129.293,322.303 129.293 C 323.618 129.293,323.694 129.085,323.905 124.907 C 324.135 120.339,325.198 118.505,327.273 119.094 C 329.737 119.794,329.870 119.754,329.870 118.326 C 329.870 116.677,326.214 115.894,324.635 117.205 C 324.047 117.693,323.810 117.704,323.810 117.242 C 323.810 116.886,323.160 116.595,322.367 116.595 L 320.924 116.595 320.924 122.944 M331.979 122.125 C 332.224 128.911,332.613 129.350,338.199 129.144 L 341.991 129.004 341.991 122.944 L 341.991 116.883 340.548 116.883 C 339.155 116.883,339.095 117.041,338.817 121.441 C 338.306 129.514,334.776 129.253,334.776 121.141 C 334.776 116.631,334.764 116.595,333.278 116.595 L 331.779 116.595 331.979 122.125 M346.312 117.639 C 343.562 119.866,344.871 123.019,348.974 124.052 C 353.057 125.080,352.330 126.747,347.887 126.546 C 345.298 126.429,344.589 126.579,344.589 127.247 C 344.589 129.490,351.239 130.146,353.281 128.104 C 355.858 125.527,354.136 122.437,349.601 121.505 C 346.655 120.899,347.854 119.165,351.104 119.332 C 353.434 119.452,353.824 119.316,353.824 118.384 C 353.824 116.351,348.549 115.828,346.312 117.639 M358.316 116.913 C 357.574 117.654,358.598 118.903,359.946 118.903 C 361.270 118.903,361.328 119.069,361.328 122.907 L 361.328 126.911 359.456 127.092 C 358.224 127.211,357.520 127.618,357.394 128.283 C 357.223 129.185,357.764 129.293,362.440 129.293 C 367.292 129.293,367.677 129.208,367.677 128.139 C 367.677 127.244,367.292 126.984,365.968 126.984 L 364.259 126.984 364.092 121.934 L 363.925 116.883 361.306 116.712 C 359.866 116.618,358.520 116.709,358.316 116.913 M371.441 117.973 C 367.429 121.985,369.884 129.293,375.245 129.293 C 379.194 129.293,381.423 125.570,380.343 120.779 C 379.406 116.625,374.375 115.039,371.441 117.973 M383.261 123.060 C 383.261 129.277,383.281 129.370,384.560 129.189 C 385.752 129.019,385.882 128.631,386.147 124.446 C 386.658 116.373,390.188 116.635,390.188 124.746 C 390.188 129.211,390.214 129.293,391.631 129.293 C 393.039 129.293,393.074 129.191,393.074 125.050 C 393.074 117.553,392.344 116.614,386.580 116.698 L 383.261 116.746 383.261 123.060 M185.166 120.173 C 186.720 121.727,185.578 126.407,183.645 126.407 C 182.067 126.407,181.241 125.217,181.241 122.944 C 181.241 120.715,182.064 119.481,183.550 119.481 C 184.058 119.481,184.785 119.792,185.166 120.173 M262.049 120.346 C 262.669 121.093,262.430 121.212,260.317 121.212 C 258.205 121.212,257.966 121.093,258.586 120.346 C 258.981 119.870,259.760 119.481,260.317 119.481 C 260.875 119.481,261.654 119.870,262.049 120.346 M376.226 119.978 C 377.675 120.897,376.873 126.083,375.246 126.313 C 373.556 126.552,372.892 125.597,372.880 122.915 C 372.868 120.039,374.317 118.767,376.226 119.978 M211.148 124.519 C 210.893 125.840,208.026 126.871,207.121 125.967 C 206.111 124.957,207.588 123.521,209.637 123.521 C 210.941 123.521,211.295 123.755,211.148 124.519 " stroke="none" fill="#000000" fill-rule="evenodd"></path></g></svg>